<svg width="142" height="48" viewBox="0 0 142 48" fill="none" xmlns="http://www.w3.org/2000/svg">
<rect width="141.6" height="48" rx="7.2" fill="#2B2D30"/>
<rect x="0.247709" y="0.247709" width="141.105" height="47.5046" rx="6.95229" stroke="#A6A6A6" stroke-opacity="0.3" stroke-width="0.495419"/>
<path d="M26.4154 23.0817L16.1016 34.2756C16.1025 34.2776 16.1025 34.2806 16.1035 34.2826C16.4203 35.4981 17.5052 36.3926 18.7936 36.3926C19.3089 36.3926 19.7923 36.2499 20.2069 36.0003L20.2399 35.9805L31.8488 29.1304L26.4154 23.0817Z" fill="#EA4335"/>
<path d="M36.848 21.1753L36.8383 21.1684L31.8263 18.1975L26.1797 23.3358L31.8466 29.1289L36.8316 26.1878C37.7053 25.7044 38.2991 24.7623 38.2991 23.6766C38.2991 22.5968 37.714 21.6597 36.848 21.1753Z" fill="#FBBC04"/>
<path d="M16.1027 13.0298C16.0407 13.2635 16.0078 13.5092 16.0078 13.7628V33.5433C16.0078 33.7969 16.0407 34.0426 16.1037 34.2754L26.7711 23.3678L16.1027 13.0298Z" fill="#4285F4"/>
<path d="M26.4919 23.6523L31.8294 18.1951L20.2341 11.3202C19.8127 11.0617 19.3206 10.9131 18.7946 10.9131C17.5062 10.9131 16.4193 11.8096 16.1025 13.0261C16.1025 13.0271 16.1016 13.028 16.1016 13.029L26.4919 23.6523Z" fill="#34A853"/>
<path d="M54.1499 15.0903C54.1499 16.1961 53.8218 17.0771 53.1657 17.7333C52.4284 18.5147 51.459 18.9055 50.2573 18.9055C49.1072 18.9055 48.1341 18.5073 47.3379 17.7111C46.5416 16.9149 46.1435 15.9344 46.1435 14.7696C46.1435 13.6048 46.5416 12.6242 47.3379 11.828C48.1341 11.0318 49.1072 10.6337 50.2573 10.6337C50.8397 10.6337 51.3889 10.7369 51.905 10.9434C52.4211 11.1498 52.845 11.441 53.1767 11.817L52.4469 12.5468C52.2036 12.2519 51.8866 12.0234 51.4958 11.8612C51.1125 11.6916 50.6996 11.6069 50.2573 11.6069C49.3947 11.6069 48.6649 11.9054 48.0677 12.5026C47.4779 13.1071 47.183 13.8628 47.183 14.7696C47.183 15.6764 47.4779 16.432 48.0677 17.0366C48.6649 17.6337 49.3947 17.9323 50.2573 17.9323C51.0461 17.9323 51.7023 17.7111 52.2257 17.2688C52.7491 16.8265 53.0514 16.2182 53.1325 15.4442H50.2573V14.4931H54.0946C54.1314 14.6996 54.1499 14.8986 54.1499 15.0903ZM60.0084 10.8107V11.7838H56.4034V14.2941H59.6546V15.2451H56.4034V17.7554H60.0084V18.7285H55.386V10.8107H60.0084ZM64.0779 11.7838V18.7285H63.0605V11.7838H60.8488V10.8107H66.2895V11.7838H64.0779ZM70.7988 18.7285H69.7814V10.8107H70.7988V18.7285ZM75.0931 11.7838V18.7285H74.0757V11.7838H71.864V10.8107H77.3048V11.7838H75.0931ZM88.3327 14.7696C88.3327 15.9418 87.942 16.9223 87.1605 17.7111C86.3717 18.5073 85.4059 18.9055 84.2632 18.9055C83.1131 18.9055 82.1473 18.5073 81.3659 17.7111C80.5844 16.9223 80.1937 15.9418 80.1937 14.7696C80.1937 13.5974 80.5844 12.6169 81.3659 11.828C82.1473 11.0318 83.1131 10.6337 84.2632 10.6337C85.4133 10.6337 86.379 11.0355 87.1605 11.8391C87.942 12.6279 88.3327 13.6048 88.3327 14.7696ZM81.2332 14.7696C81.2332 15.6838 81.5207 16.4394 82.0957 17.0366C82.6781 17.6337 83.4006 17.9323 84.2632 17.9323C85.1257 17.9323 85.8445 17.6337 86.4196 17.0366C87.002 16.4468 87.2932 15.6911 87.2932 14.7696C87.2932 13.848 87.002 13.0924 86.4196 12.5026C85.8445 11.9054 85.1257 11.6069 84.2632 11.6069C83.4006 11.6069 82.6781 11.9054 82.0957 12.5026C81.5207 13.0998 81.2332 13.8554 81.2332 14.7696ZM90.5507 18.7285H89.5333V10.8107H90.7719L94.6202 16.9702H94.6644L94.6202 15.4442V10.8107H95.6376V18.7285H94.576L90.5507 12.2704H90.5065L90.5507 13.7964V18.7285Z" fill="white"/>
<path d="M106.796 35.0258H108.525V23.3359H106.796V35.0258ZM122.371 27.5467L120.389 32.6151H120.329L118.272 27.5467H116.41L119.494 34.6303L117.737 38.5709H119.539L124.294 27.5467H122.371ZM112.565 33.698C111.998 33.698 111.208 33.4128 111.208 32.7049C111.208 31.8034 112.191 31.4574 113.041 31.4574C113.801 31.4574 114.16 31.6229 114.621 31.8483C114.487 32.9312 113.563 33.698 112.565 33.698ZM112.773 27.2915C111.521 27.2915 110.224 27.8479 109.688 29.0813L111.223 29.7274C111.551 29.0813 112.162 28.8699 112.803 28.8699C113.697 28.8699 114.606 29.4114 114.621 30.3746V30.4942C114.308 30.3138 113.638 30.0435 112.818 30.0435C111.164 30.0435 109.479 30.9609 109.479 32.675C109.479 34.2394 110.836 35.2475 112.355 35.2475C113.518 35.2475 114.16 34.721 114.562 34.1038H114.621V35.0062H116.29V30.5242C116.29 28.4491 114.755 27.2915 112.773 27.2915ZM102.087 28.97H99.6276V24.963H102.087C103.38 24.963 104.114 26.0431 104.114 26.966C104.114 27.8722 103.38 28.97 102.087 28.97ZM102.042 23.3359H97.8994V35.0258H99.6276V30.5971H102.042C103.959 30.5971 105.843 29.1963 105.843 26.966C105.843 24.7358 103.959 23.3359 102.042 23.3359ZM79.4494 33.6998C78.2549 33.6998 77.255 32.6908 77.255 31.305C77.255 29.9042 78.2549 28.8793 79.4494 28.8793C80.629 28.8793 81.5538 29.9042 81.5538 31.305C81.5538 32.6908 80.629 33.6998 79.4494 33.6998ZM81.4352 28.2013H81.375C80.9867 27.7347 80.2408 27.313 79.3002 27.313C77.3292 27.313 75.5231 29.0598 75.5231 31.305C75.5231 33.5343 77.3292 35.2671 79.3002 35.2671C80.2408 35.2671 80.9867 34.8454 81.375 34.3628H81.4352V34.9361C81.4352 36.4575 80.629 37.2711 79.3298 37.2711C78.2697 37.2711 77.6127 36.5024 77.344 35.8544L75.8363 36.4874C76.2691 37.5423 77.419 38.8374 79.3298 38.8374C81.3602 38.8374 83.0773 37.632 83.0773 34.6948V27.5533H81.4352V28.2013ZM84.2718 35.0258H86.0037V23.335H84.2718V35.0258ZM88.5558 31.1694C88.5113 29.633 89.7354 28.8494 90.6157 28.8494C91.3033 28.8494 91.8853 29.1954 92.079 29.6929L88.5558 31.1694ZM93.9304 29.8434C93.6024 28.955 92.6016 27.313 90.5564 27.313C88.5261 27.313 86.8396 28.9242 86.8396 31.29C86.8396 33.5194 88.5113 35.2671 90.7501 35.2671C92.5571 35.2671 93.6024 34.1524 94.0352 33.5044L92.6915 32.6001C92.2439 33.2631 91.6314 33.6998 90.7501 33.6998C89.8698 33.6998 89.2424 33.2931 88.8393 32.4954L94.1093 30.2951L93.9304 29.8434ZM51.9449 28.5333V30.2203H55.9453C55.8258 31.1694 55.5126 31.8623 55.0354 32.3439C54.4525 32.9321 53.5416 33.5801 51.9449 33.5801C49.4809 33.5801 47.5553 31.5762 47.5553 29.0906C47.5553 26.6041 49.4809 24.6011 51.9449 24.6011C53.2738 24.6011 54.244 25.1285 54.9603 25.8065L56.1399 24.6161C55.1391 23.652 53.8112 22.9132 51.9449 22.9132C48.5709 22.9132 45.7344 25.6859 45.7344 29.0906C45.7344 32.4954 48.5709 35.2671 51.9449 35.2671C53.7658 35.2671 55.1391 34.664 56.2141 33.5343C57.3196 32.4197 57.6625 30.8533 57.6625 29.5872C57.6625 29.1954 57.6328 28.8344 57.5726 28.5333H51.9449ZM62.2115 33.6998C61.017 33.6998 59.9865 32.7058 59.9865 31.29C59.9865 29.8584 61.017 28.8793 62.2115 28.8793C63.405 28.8793 64.4355 29.8584 64.4355 31.29C64.4355 32.7058 63.405 33.6998 62.2115 33.6998ZM62.2115 27.313C60.031 27.313 58.2546 28.985 58.2546 31.29C58.2546 33.5801 60.031 35.2671 62.2115 35.2671C64.391 35.2671 66.1674 33.5801 66.1674 31.29C66.1674 28.985 64.391 27.313 62.2115 27.313ZM70.8415 33.6998C69.6471 33.6998 68.6166 32.7058 68.6166 31.29C68.6166 29.8584 69.6471 28.8793 70.8415 28.8793C72.036 28.8793 73.0656 29.8584 73.0656 31.29C73.0656 32.7058 72.036 33.6998 70.8415 33.6998ZM70.8415 27.313C68.662 27.313 66.8856 28.985 66.8856 31.29C66.8856 33.5801 68.662 35.2671 70.8415 35.2671C73.0211 35.2671 74.7975 33.5801 74.7975 31.29C74.7975 28.985 73.0211 27.313 70.8415 27.313Z" fill="white"/>
</svg>
