<svg width="144" height="48" viewBox="0 0 144 48" fill="none" xmlns="http://www.w3.org/2000/svg">
<rect x="0.601562" width="142.8" height="48" rx="7.2" fill="#2B2D30"/>
<rect x="0.849272" y="0.247709" width="142.305" height="47.5046" rx="6.95229" stroke="#A6A6A6" stroke-opacity="0.3" stroke-width="0.495419"/>
<path d="M34.1729 24.6011C34.186 23.6137 34.4546 22.6455 34.9539 21.7867C35.4532 20.9278 36.1668 20.2063 37.0285 19.6891C36.4811 18.9258 35.759 18.2977 34.9194 17.8546C34.0799 17.4115 33.1461 17.1656 32.1922 17.1365C30.1574 16.9279 28.1847 18.3252 27.1477 18.3252C26.0908 18.3252 24.4943 17.1572 22.7751 17.1917C21.6631 17.2268 20.5794 17.5425 19.6295 18.108C18.6797 18.6736 17.896 19.4697 17.355 20.4189C15.0115 24.3801 16.7596 30.2019 19.0045 33.404C20.1277 34.9719 21.4403 36.7233 23.1579 36.6612C24.8387 36.5932 25.4665 35.6149 27.4953 35.6149C29.5053 35.6149 30.0942 36.6612 31.8467 36.6217C33.6503 36.5932 34.7866 35.0468 35.8704 33.464C36.6774 32.3468 37.2984 31.1121 37.7103 29.8055C36.6625 29.3728 35.7683 28.6486 35.1393 27.7231C34.5102 26.7976 34.1741 25.7118 34.1729 24.6011Z" fill="white"/>
<path d="M30.8637 15.0299C31.8471 13.8774 32.3316 12.396 32.2143 10.9004C30.7119 11.0544 29.3241 11.7555 28.3274 12.8638C27.8401 13.4052 27.4669 14.0351 27.2291 14.7174C26.9913 15.3998 26.8936 16.1212 26.9415 16.8404C27.693 16.848 28.4364 16.689 29.1158 16.3753C29.7952 16.0617 30.3928 15.6017 30.8637 15.0299Z" fill="white"/>
<path d="M47.1813 13.9979H49.4957C51.4955 13.9979 52.4684 15.187 52.4684 17.3441C52.4684 19.5012 51.4857 20.7051 49.4957 20.7051H47.1813V13.9979ZM48.2967 14.9364V19.7666H49.3728C50.6995 19.7666 51.3236 18.9656 51.3236 17.3589C51.3236 15.7423 50.6946 14.9364 49.3728 14.9364H48.2967ZM55.9965 15.4229C57.3526 15.4229 58.301 16.3024 58.301 17.7618V18.435C58.301 19.9435 57.3526 20.7935 55.9965 20.7935C54.6206 20.7935 53.6821 19.9533 53.6821 18.4399V17.7667C53.6821 16.3467 54.6354 15.4229 55.9965 15.4229ZM56.0014 16.3024C55.225 16.3024 54.7828 16.951 54.7828 17.8208V18.4006C54.7828 19.2703 55.1955 19.914 56.0014 19.914C56.7974 19.914 57.2052 19.2752 57.2052 18.4006V17.8208C57.2052 16.951 56.7777 16.3024 56.0014 16.3024ZM66.3103 15.5113L64.9443 20.7051H63.8338L62.7478 16.8724H62.7184L61.6521 20.7051H60.5367L59.1117 15.5113H60.2861L61.1214 19.4717H61.1706L62.2172 15.5113H63.2441L64.3202 19.4717H64.3694L65.2194 15.5113H66.3103ZM67.3913 20.7051V15.5113H68.4624V16.4449H68.5165C68.6492 16.0371 69.0275 15.4327 70.079 15.4327C71.1257 15.4327 71.8283 16.0125 71.8283 17.1967V20.7051H70.7375V17.5161C70.7375 16.725 70.3247 16.3614 69.7105 16.3614C68.9047 16.3614 68.4821 16.9805 68.4821 17.8208V20.7051H67.3913ZM73.4793 20.7051V13.6441H74.5701V20.7051H73.4793ZM78.3144 15.4229C79.6705 15.4229 80.6189 16.3024 80.6189 17.7618V18.435C80.6189 19.9435 79.6705 20.7935 78.3144 20.7935C76.9385 20.7935 76 19.9533 76 18.4399V17.7667C76 16.3467 76.9533 15.4229 78.3144 15.4229ZM78.3193 16.3024C77.5429 16.3024 77.1007 16.951 77.1007 17.8208V18.4006C77.1007 19.2703 77.5134 19.914 78.3193 19.914C79.1153 19.914 79.5231 19.2752 79.5231 18.4006V17.8208C79.5231 16.951 79.0956 16.3024 78.3193 16.3024ZM83.4442 20.7837C82.4369 20.7837 81.7441 20.1646 81.7441 19.1966C81.7441 18.2777 82.3829 17.6586 83.5818 17.6586H84.8938V17.1721C84.8938 16.5776 84.5154 16.2975 83.9159 16.2975C83.3263 16.2975 83.061 16.5432 82.9774 16.8872H81.9406C82.0045 16.0174 82.658 15.4327 83.9503 15.4327C85.0608 15.4327 85.9797 15.8946 85.9797 17.1869V20.7051H84.9429V20.0319H84.8938C84.6628 20.4299 84.2108 20.7837 83.4442 20.7837ZM83.7833 19.9385C84.4024 19.9385 84.8938 19.516 84.8938 18.9509V18.3907H83.7538C83.1199 18.3907 82.8398 18.7101 82.8398 19.1425C82.8398 19.683 83.2919 19.9385 83.7833 19.9385ZM89.3406 15.4425C90.0728 15.4425 90.6329 15.7668 90.8344 16.2926H90.8884V13.6441H91.9793V20.7051H90.9179V19.8747H90.8639C90.7066 20.4004 90.0826 20.7739 89.3259 20.7739C88.1319 20.7739 87.3555 19.9238 87.3555 18.5529V17.6635C87.3555 16.2926 88.1466 15.4425 89.3406 15.4425ZM89.6453 16.3368C88.9181 16.3368 88.466 16.8773 88.466 17.8208V18.3907C88.466 19.3391 88.923 19.8796 89.6698 19.8796C90.4069 19.8796 90.8884 19.344 90.8884 18.4595V17.6733C90.8884 16.8724 90.3627 16.3368 89.6453 16.3368ZM97.969 15.4229C99.3252 15.4229 100.274 16.3024 100.274 17.7618V18.435C100.274 19.9435 99.3252 20.7935 97.969 20.7935C96.5932 20.7935 95.6547 19.9533 95.6547 18.4399V17.7667C95.6547 16.3467 96.6079 15.4229 97.969 15.4229ZM97.9739 16.3024C97.1976 16.3024 96.7554 16.951 96.7554 17.8208V18.4006C96.7554 19.2703 97.1681 19.914 97.9739 19.914C98.77 19.914 99.1778 19.2752 99.1778 18.4006V17.8208C99.1778 16.951 98.7503 16.3024 97.9739 16.3024ZM101.679 20.7051V15.5113H102.75V16.4449H102.804C102.937 16.0371 103.315 15.4327 104.367 15.4327C105.413 15.4327 106.116 16.0125 106.116 17.1967V20.7051H105.025V17.5161C105.025 16.725 104.612 16.3614 103.998 16.3614C103.192 16.3614 102.77 16.9805 102.77 17.8208V20.7051H101.679ZM110.337 15.5457V14.2485H111.403V15.5457H112.568V16.4007H111.403V19.1573C111.403 19.7223 111.614 19.8796 112.199 19.8796C112.346 19.8796 112.543 19.8698 112.627 19.8599V20.6953C112.538 20.71 112.174 20.7395 111.929 20.7395C110.666 20.7395 110.322 20.2874 110.322 19.2457V16.4007H109.531V15.5457H110.337ZM113.943 20.7051V13.6441H115.029V16.4449H115.083C115.196 16.0764 115.619 15.4327 116.661 15.4327C117.673 15.4327 118.395 16.0174 118.395 17.2016V20.7051H117.309V17.521C117.309 16.7299 116.872 16.3614 116.253 16.3614C115.472 16.3614 115.029 16.9756 115.029 17.8208V20.7051H113.943ZM122.056 20.7935C120.641 20.7935 119.761 19.9238 119.761 18.4595V17.7569C119.761 16.2828 120.724 15.4229 121.992 15.4229C123.294 15.4229 124.213 16.327 124.213 17.7569V18.3662H120.842V18.6217C120.842 19.3686 121.284 19.9189 122.051 19.9189C122.621 19.9189 123.014 19.6486 123.088 19.3243H124.154C124.09 19.9238 123.456 20.7935 122.056 20.7935ZM120.842 17.6537H123.147V17.5849C123.147 16.8036 122.69 16.2828 121.997 16.2828C121.304 16.2828 120.842 16.8036 120.842 17.5849V17.6537Z" fill="white"/>
<path d="M48.7635 37.7051H46.4934L51.1123 24.2908H53.6084L58.2174 37.7051H55.8589L54.6698 33.9903H49.9625L48.7635 37.7051ZM52.3702 26.61H52.2817L50.4637 32.2804H54.1686L52.3702 26.61ZM64.4826 37.8525C63.1363 37.8525 62.1142 37.2137 61.5639 36.2605H61.4853V41.1545H59.3036V27.3176H61.4263V28.8408H61.5049C62.0749 27.8483 63.1363 27.18 64.5317 27.18C66.8608 27.18 68.5216 28.9391 68.5216 32.0445V32.9683C68.5216 36.0541 66.8805 37.8525 64.4826 37.8525ZM63.9814 36.0541C65.3671 36.0541 66.3105 34.9436 66.3105 32.8504V32.1231C66.3105 30.1085 65.426 28.9587 63.9421 28.9587C62.4189 28.9587 61.4656 30.197 61.4656 32.1133V32.8504C61.4656 34.8158 62.4287 36.0541 63.9814 36.0541ZM75.573 37.8525C74.2267 37.8525 73.2046 37.2137 72.6543 36.2605H72.5757V41.1545H70.394V27.3176H72.5167V28.8408H72.5953C73.1653 27.8483 74.2267 27.18 75.6221 27.18C77.9512 27.18 79.612 28.9391 79.612 32.0445V32.9683C79.612 36.0541 77.9709 37.8525 75.573 37.8525ZM75.0718 36.0541C76.4575 36.0541 77.4009 34.9436 77.4009 32.8504V32.1231C77.4009 30.1085 76.5164 28.9587 75.0325 28.9587C73.5093 28.9587 72.556 30.197 72.556 32.1133V32.8504C72.556 34.8158 73.5191 36.0541 75.0718 36.0541ZM84.1331 33.9805H86.3148C86.413 35.1401 87.4351 36.1327 89.3318 36.1327C91.0712 36.1327 92.1031 35.317 92.1031 34.0493C92.1031 33.0273 91.4152 32.4769 89.9804 32.133L87.779 31.5826C86.0494 31.1797 84.4967 30.1479 84.4967 27.9662C84.4967 25.4012 86.7373 23.9959 89.3416 23.9959C91.9458 23.9959 94.1177 25.4012 94.1668 27.9072H92.0245C91.9262 26.7672 91.0515 25.8238 89.3121 25.8238C87.779 25.8238 86.7373 26.551 86.7373 27.7991C86.7373 28.6738 87.3466 29.3027 88.5947 29.5877L90.7862 30.1282C92.8008 30.6196 94.3339 31.5728 94.3339 33.8528C94.3339 36.4865 92.2013 37.9704 89.1647 37.9704C85.4303 37.9704 84.1822 35.7887 84.1331 33.9805ZM96.9924 27.3176V24.792H99.1348V27.3176H101.159V29.0668H99.1348V34.6095C99.1348 35.7396 99.5574 36.0541 100.727 36.0541C100.914 36.0541 101.09 36.0541 101.218 36.0344V37.7051C101.041 37.7346 100.629 37.7739 100.186 37.7739C97.6607 37.7739 96.9629 36.8698 96.9629 34.7864V29.0668H95.5281V27.3176H96.9924ZM107.051 27.1407C110.038 27.1407 111.66 29.2437 111.66 32.074V32.9093C111.66 35.8379 110.048 37.882 107.051 37.882C104.054 37.882 102.422 35.8379 102.422 32.9093V32.074C102.422 29.2536 104.063 27.1407 107.051 27.1407ZM107.051 28.89C105.429 28.89 104.624 30.2166 104.624 32.1035V32.8995C104.624 34.7569 105.42 36.1229 107.051 36.1229C108.682 36.1229 109.468 34.7667 109.468 32.8995V32.1035C109.468 30.2068 108.672 28.89 107.051 28.89ZM113.503 37.7051V27.3176H115.684V28.6836H115.763C116.028 28.035 116.805 27.1702 118.249 27.1702C118.534 27.1702 118.78 27.1898 118.986 27.2291V29.1553C118.8 29.1062 118.416 29.0767 118.053 29.0767C116.304 29.0767 115.714 30.1577 115.714 31.5532V37.7051H113.503ZM124.279 37.882C121.498 37.882 119.729 36.0443 119.729 32.9683V31.9168C119.729 29.0177 121.458 27.1407 124.19 27.1407C126.962 27.1407 128.632 29.0865 128.632 32.015V33.0076H121.881V33.2533C121.881 35.0026 122.824 36.1622 124.308 36.1622C125.419 36.1622 126.175 35.6119 126.441 34.7176H128.514C128.2 36.398 126.844 37.882 124.279 37.882ZM121.881 31.4844H126.5V31.4647C126.5 29.9906 125.586 28.831 124.2 28.831C122.795 28.831 121.881 29.9906 121.881 31.4647V31.4844Z" fill="white"/>
</svg>
