<svg width="41" height="40" viewBox="0 0 41 40" fill="none" xmlns="http://www.w3.org/2000/svg">
<path d="M19.2875 17.7126C19.2875 21.4294 19.2875 25.1461 19.2875 28.8595C19.2875 32.573 19.2875 36.2898 19.2875 39.9998C17.756 39.1174 16.2247 38.2317 14.6932 37.346C14.6932 35.3004 14.6932 33.2481 14.6932 31.2026C14.6932 29.1537 14.6932 27.1048 14.6932 25.0525C14.1725 26.8039 13.6517 28.552 13.1328 30.3001C12.614 32.0482 12.0952 33.7996 11.5763 35.5444C10.2937 34.7991 9.01302 34.0603 7.73237 33.3183C7.20774 30.9552 6.6827 28.5888 6.16038 26.2257C5.63735 23.8593 5.11502 21.4895 4.59235 19.123C4.59235 21.1887 4.59235 23.2577 4.59235 25.3199C4.59235 27.3822 4.59235 29.4478 4.59235 31.5101C3.06089 30.6243 1.52951 29.742 0 28.8595C0 25.1495 0 21.4327 0 17.7226C0 14.0091 0 10.2923 0 6.57556C0.923809 7.11034 1.85158 7.64518 2.77546 8.17995C3.69934 8.71473 4.62704 9.2495 5.55287 9.78434C6.2434 12.5953 6.9358 15.4131 7.62633 18.2206C8.31679 21.0282 9.00919 23.846 9.70167 26.6569C10.3767 24.6348 11.0523 22.6095 11.7269 20.5905C12.4024 18.5685 13.0789 16.5462 13.7559 14.5206C14.6778 15.0521 15.5991 15.5848 16.5218 16.1183C17.4429 16.651 18.3656 17.1812 19.2876 17.7127L19.2875 17.7126Z" fill="#1A1A1A"/>
<path d="M0.817871 5.07944C2.24602 4.25492 3.67027 3.43263 5.0907 2.6125C6.99353 3.70666 8.8926 4.80312 10.7916 5.8995C12.6868 6.99367 14.5859 8.09012 16.4849 9.18429C17.6158 8.52915 18.7467 7.87617 19.8776 7.22319C18.4804 6.41648 17.0783 5.60928 15.6782 4.80089C14.28 3.99362 12.8798 3.18524 11.4787 2.37629C12.8374 1.5919 14.1999 0.805209 15.5586 0.020813C16.9597 0.829754 18.357 1.63647 19.7581 2.44541C21.1553 3.25206 22.5564 4.05884 23.9537 4.86771C25.2159 4.13901 26.4742 3.41254 27.7324 2.68606C28.9907 1.95952 30.2491 1.23311 31.5074 0.506567C32.8274 1.26871 34.1475 2.03086 35.4636 2.79085C36.7837 3.55299 38.0999 4.31291 39.4161 5.07506C36.2047 6.93137 32.989 8.78684 29.7743 10.644C26.5586 12.5017 23.3438 14.3611 20.1286 16.2197C16.9134 14.3633 13.6943 12.5047 10.4791 10.6507C7.26003 8.79442 4.04093 6.93582 0.81801 5.07944H0.817871Z" fill="#1A1A1A"/>
<path d="M40.2581 28.8615C40.2581 25.1447 40.2581 21.428 40.2581 17.7146C40.2581 14.0011 40.2581 10.2843 40.2581 6.57428C38.7267 7.45665 37.1953 8.34242 35.6638 9.22813C35.6638 11.2737 35.6638 13.326 35.6638 15.3715C35.6638 17.4204 35.6638 19.4693 35.6638 21.5216C35.1431 19.7701 34.6223 18.0221 34.1035 16.274C33.5847 14.5259 33.0658 12.7745 32.547 11.0297C31.2644 11.775 29.9837 12.5137 28.703 13.2558C28.1784 15.6189 27.6533 17.9853 27.1311 20.3484C26.6081 22.7148 26.0857 25.0846 25.563 27.451C25.563 25.3854 25.563 23.3164 25.563 21.2542C25.563 19.1919 25.563 17.1262 25.563 15.064C24.0316 15.9498 22.5002 16.8321 20.9707 17.7146C20.9707 21.4246 20.9707 25.1414 20.9707 28.8515C20.9707 32.565 20.9707 36.2817 20.9707 39.9985C21.8946 39.4638 22.8223 38.9289 23.7462 38.3941C24.67 37.8594 25.5977 37.3246 26.5236 36.7898C27.214 33.9788 27.9065 31.1611 28.597 28.3535C29.2874 25.5459 29.9798 22.7281 30.6723 19.9172C31.3473 21.9394 32.023 23.9648 32.6975 25.9838C33.373 28.0056 34.0496 30.0281 34.7265 32.0536C35.6485 31.5222 36.5697 30.9894 37.4924 30.4559C38.4136 29.9232 39.3363 29.393 40.2582 28.8615H40.2581Z" fill="#1A1A1A"/>
</svg>
