<svg width="97" height="40" viewBox="0 0 97 40" fill="none" xmlns="http://www.w3.org/2000/svg">
<path d="M19.2875 17.7126C19.2875 21.4294 19.2875 25.1461 19.2875 28.8595C19.2875 32.573 19.2875 36.2898 19.2875 39.9998C17.756 39.1174 16.2247 38.2317 14.6932 37.346C14.6932 35.3004 14.6932 33.2481 14.6932 31.2026C14.6932 29.1537 14.6932 27.1048 14.6932 25.0525C14.1725 26.8039 13.6517 28.552 13.1328 30.3001C12.614 32.0482 12.0952 33.7996 11.5763 35.5444C10.2937 34.7991 9.01302 34.0603 7.73237 33.3183C7.20774 30.9552 6.6827 28.5888 6.16038 26.2257C5.63735 23.8593 5.11502 21.4895 4.59235 19.123C4.59235 21.1887 4.59235 23.2577 4.59235 25.3199C4.59235 27.3822 4.59235 29.4478 4.59235 31.5101C3.06089 30.6243 1.52951 29.742 0 28.8595C0 25.1495 0 21.4327 0 17.7226C0 14.0091 0 10.2923 0 6.57556C0.923809 7.11034 1.85158 7.64518 2.77546 8.17995C3.69934 8.71473 4.62704 9.2495 5.55287 9.78434C6.2434 12.5953 6.9358 15.4131 7.62633 18.2206C8.31679 21.0282 9.00919 23.846 9.70167 26.6569C10.3767 24.6348 11.0523 22.6095 11.7269 20.5905C12.4024 18.5685 13.0789 16.5462 13.7559 14.5206C14.6778 15.0521 15.5991 15.5848 16.5218 16.1183C17.4429 16.651 18.3656 17.1812 19.2876 17.7127L19.2875 17.7126Z" fill="#1A1A1A"/>
<path d="M0.817871 5.07944C2.24602 4.25492 3.67027 3.43263 5.0907 2.6125C6.99353 3.70666 8.8926 4.80312 10.7916 5.8995C12.6868 6.99367 14.5859 8.09012 16.4849 9.18429C17.6158 8.52915 18.7467 7.87617 19.8776 7.22319C18.4804 6.41648 17.0783 5.60928 15.6782 4.80089C14.28 3.99362 12.8798 3.18524 11.4787 2.37629C12.8374 1.5919 14.1999 0.805209 15.5586 0.020813C16.9597 0.829754 18.357 1.63647 19.7581 2.44541C21.1553 3.25206 22.5564 4.05884 23.9537 4.86771C25.2159 4.13901 26.4742 3.41254 27.7324 2.68606C28.9907 1.95952 30.2491 1.23311 31.5074 0.506567C32.8274 1.26871 34.1475 2.03086 35.4636 2.79085C36.7837 3.55299 38.0999 4.31291 39.4161 5.07506C36.2047 6.93137 32.989 8.78684 29.7743 10.644C26.5586 12.5017 23.3438 14.3611 20.1286 16.2197C16.9134 14.3633 13.6943 12.5047 10.4791 10.6507C7.26003 8.79442 4.04093 6.93582 0.81801 5.07944H0.817871Z" fill="#1A1A1A"/>
<path d="M40.2581 28.8615C40.2581 25.1447 40.2581 21.428 40.2581 17.7146C40.2581 14.0011 40.2581 10.2843 40.2581 6.57428C38.7267 7.45665 37.1953 8.34242 35.6638 9.22813C35.6638 11.2737 35.6638 13.326 35.6638 15.3715C35.6638 17.4204 35.6638 19.4693 35.6638 21.5216C35.1431 19.7701 34.6223 18.0221 34.1035 16.274C33.5847 14.5259 33.0658 12.7745 32.547 11.0297C31.2644 11.775 29.9837 12.5137 28.703 13.2558C28.1784 15.6189 27.6533 17.9853 27.1311 20.3484C26.6081 22.7148 26.0857 25.0846 25.563 27.451C25.563 25.3854 25.563 23.3164 25.563 21.2542C25.563 19.1919 25.563 17.1262 25.563 15.064C24.0316 15.9498 22.5002 16.8321 20.9707 17.7146C20.9707 21.4246 20.9707 25.1414 20.9707 28.8515C20.9707 32.565 20.9707 36.2817 20.9707 39.9985C21.8946 39.4638 22.8223 38.9289 23.7462 38.3941C24.67 37.8594 25.5977 37.3246 26.5236 36.7898C27.214 33.9788 27.9065 31.1611 28.597 28.3535C29.2874 25.5459 29.9798 22.7281 30.6723 19.9172C31.3473 21.9394 32.023 23.9648 32.6975 25.9838C33.373 28.0056 34.0496 30.0281 34.7265 32.0536C35.6485 31.5222 36.5697 30.9894 37.4924 30.4559C38.4136 29.9232 39.3363 29.393 40.2582 28.8615H40.2581Z" fill="#1A1A1A"/>
<path d="M72.9414 32.3046C72.9414 31.5774 73.071 30.9421 73.3301 30.3988C73.5976 29.8555 73.957 29.4375 74.4084 29.145C74.8681 28.8524 75.378 28.7061 75.9381 28.7061C76.4229 28.7061 76.8408 28.8022 77.1919 28.9945C77.543 29.1868 77.8147 29.4459 78.0069 29.7719V28.7939H80.4644V35.8279H78.0069V34.8499C77.8147 35.1759 77.5388 35.435 77.1794 35.6273C76.8283 35.8196 76.4145 35.9157 75.9381 35.9157C75.378 35.9157 74.8681 35.7694 74.4084 35.4768C73.957 35.1843 73.5976 34.7663 73.3301 34.223C73.071 33.6713 72.9414 33.0319 72.9414 32.3046ZM78.0069 32.3046C78.0069 31.8532 77.8815 31.498 77.6308 31.2389C77.3884 30.9797 77.0874 30.8502 76.728 30.8502C76.3602 30.8502 76.0551 30.9797 75.8127 31.2389C75.5703 31.4896 75.4491 31.8449 75.4491 32.3046C75.4491 32.756 75.5703 33.1154 75.8127 33.3829C76.0551 33.6421 76.3602 33.7716 76.728 33.7716C77.0874 33.7716 77.3884 33.6421 77.6308 33.3829C77.8815 33.1238 78.0069 32.7644 78.0069 32.3046Z" fill="#1A1A1A"/>
<path d="M72.1333 26.5498V35.8282H69.6758V26.5498H72.1333Z" fill="#1A1A1A"/>
<path d="M60.9438 32.3046C60.9438 31.5774 61.0734 30.9421 61.3325 30.3988C61.6 29.8555 61.9595 29.4375 62.4108 29.145C62.8706 28.8524 63.3805 28.7061 63.9405 28.7061C64.4253 28.7061 64.8433 28.8022 65.1944 28.9945C65.5454 29.1868 65.8171 29.4459 66.0094 29.7719V28.7939H68.4669V35.8279H66.0094V34.8499C65.8171 35.1759 65.5413 35.435 65.1818 35.6273C64.8307 35.8196 64.417 35.9157 63.9405 35.9157C63.3805 35.9157 62.8706 35.7694 62.4108 35.4768C61.9595 35.1843 61.6 34.7663 61.3325 34.223C61.0734 33.6713 60.9438 33.0319 60.9438 32.3046ZM66.0094 32.3046C66.0094 31.8532 65.884 31.498 65.6332 31.2389C65.3908 30.9797 65.0899 30.8502 64.7304 30.8502C64.3626 30.8502 64.0575 30.9797 63.8151 31.2389C63.5727 31.4896 63.4515 31.8449 63.4515 32.3046C63.4515 32.756 63.5727 33.1154 63.8151 33.3829C64.0575 33.6421 64.3626 33.7716 64.7304 33.7716C65.0899 33.7716 65.3908 33.6421 65.6332 33.3829C65.884 33.1238 66.0094 32.7644 66.0094 32.3046Z" fill="#1A1A1A"/>
<path d="M60.836 28.7946L59.0431 35.8286H56.2846L55.3066 31.5656L54.291 35.8286H51.5451L49.7646 28.7946H52.2096L52.9996 33.4589L54.0402 28.7946H56.6733L57.7516 33.4714L58.529 28.7946H60.836Z" fill="#1A1A1A"/>
<path d="M71.3369 19.03C71.3369 18.3028 71.4665 17.6675 71.7256 17.1242C71.9931 16.5809 72.3567 16.1629 72.8164 15.8703C73.2762 15.5778 73.7861 15.4315 74.3461 15.4315C74.7975 15.4315 75.1987 15.5276 75.5498 15.7199C75.9092 15.9038 76.1893 16.1587 76.3899 16.4847V13.2749H78.8599V22.5533H76.3899V21.5753C76.1976 21.9013 75.926 22.1604 75.5749 22.3527C75.2238 22.5449 74.81 22.6411 74.3336 22.6411C73.7735 22.6411 73.2636 22.4948 72.8039 22.2022C72.3525 21.9097 71.9931 21.4917 71.7256 20.9484C71.4665 20.3967 71.3369 19.7572 71.3369 19.03ZM76.4024 19.03C76.4024 18.5786 76.277 18.2234 76.0263 17.9643C75.7839 17.7051 75.4829 17.5756 75.1235 17.5756C74.7557 17.5756 74.4506 17.7051 74.2082 17.9643C73.9658 18.215 73.8446 18.5703 73.8446 19.03C73.8446 19.4814 73.9658 19.8408 74.2082 20.1083C74.4506 20.3674 74.7557 20.497 75.1235 20.497C75.4829 20.497 75.7839 20.3674 76.0263 20.1083C76.277 19.8492 76.4024 19.4898 76.4024 19.03Z" fill="#1A1A1A"/>
<path d="M67.9361 15.4572C68.7469 15.4572 69.3905 15.7289 69.867 16.2722C70.3434 16.8072 70.5817 17.5344 70.5817 18.4539V22.5539H68.1241V18.7799C68.1241 18.3787 68.0196 18.0652 67.8107 17.8395C67.6017 17.6055 67.3217 17.4884 66.9706 17.4884C66.6028 17.4884 66.3144 17.6055 66.1055 17.8395C65.8965 18.0652 65.792 18.3787 65.792 18.7799V22.5539H63.3345V15.5199H65.792V16.523C66.0093 16.2053 66.3019 15.9504 66.6697 15.7581C67.0375 15.5575 67.4596 15.4572 67.9361 15.4572Z" fill="#1A1A1A"/>
<path d="M62.1261 15.5197V22.5537H59.656V21.5507C59.4471 21.8683 59.1587 22.1274 58.7909 22.328C58.4231 22.5203 58.001 22.6164 57.5245 22.6164C56.7053 22.6164 56.0575 22.3489 55.5811 21.814C55.113 21.2706 54.8789 20.5351 54.8789 19.6072V15.5197H57.3239V19.2938C57.3239 19.695 57.4284 20.0126 57.6374 20.2467C57.8547 20.4724 58.1389 20.5852 58.49 20.5852C58.8494 20.5852 59.1336 20.4724 59.3426 20.2467C59.5515 20.0126 59.656 19.695 59.656 19.2938V15.5197H62.1261Z" fill="#1A1A1A"/>
<path d="M54.2411 17.5628H53.1377V22.5531H50.6677V17.5628H49.9028V15.5191H50.6677V15.4564C50.6677 14.5536 50.931 13.864 51.4576 13.3876C51.9926 12.9027 52.7574 12.6603 53.7521 12.6603C53.9527 12.6603 54.1074 12.6645 54.216 12.6729V14.7668C54.1492 14.7584 54.0572 14.7542 53.9402 14.7542C53.6727 14.7542 53.4763 14.8169 53.3509 14.9423C53.2255 15.0593 53.1545 15.2516 53.1377 15.5191H54.2411V17.5628Z" fill="#1A1A1A"/>
<path d="M96.3228 0V9.27839H93.8652V0H96.3228Z" fill="#1A1A1A"/>
<path d="M85.1309 5.75476C85.1309 5.02754 85.2604 4.39226 85.5196 3.84893C85.787 3.3056 86.1465 2.88765 86.5978 2.59509C87.0576 2.30253 87.5675 2.15625 88.1275 2.15625C88.6124 2.15625 89.0303 2.25238 89.3814 2.44463C89.7324 2.63689 90.0041 2.89601 90.1964 3.22201V2.24402H92.6539V9.27804H90.1964V8.30005C90.0041 8.62605 89.7283 8.88517 89.3688 9.07743C89.0178 9.26968 88.604 9.36581 88.1275 9.36581C87.5675 9.36581 87.0576 9.21953 86.5978 8.92697C86.1465 8.63441 85.787 8.21646 85.5196 7.67313C85.2604 7.12144 85.1309 6.48199 85.1309 5.75476ZM90.1964 5.75476C90.1964 5.30338 90.071 4.94813 89.8202 4.689C89.5778 4.42987 89.2769 4.30031 88.9175 4.30031C88.5497 4.30031 88.2446 4.42987 88.0022 4.689C87.7597 4.93977 87.6385 5.29502 87.6385 5.75476C87.6385 6.20614 87.7597 6.56558 88.0022 6.83306C88.2446 7.09219 88.5497 7.22175 88.9175 7.22175C89.2769 7.22175 89.5778 7.09219 89.8202 6.83306C90.071 6.57394 90.1964 6.2145 90.1964 5.75476Z" fill="#1A1A1A"/>
<path d="M84.3238 2.24481V9.27884H81.8538V8.27577C81.6448 8.59341 81.3564 8.85253 80.9886 9.05315C80.6208 9.2454 80.1987 9.34153 79.7223 9.34153C78.9031 9.34153 78.2553 9.07404 77.7788 8.53907C77.3107 7.99574 77.0767 7.26016 77.0767 6.33232V2.24481H79.5216V6.01886C79.5216 6.42009 79.6261 6.73773 79.8351 6.97178C80.0524 7.19747 80.3366 7.31031 80.6877 7.31031C81.0471 7.31031 81.3314 7.19747 81.5403 6.97178C81.7493 6.73773 81.8538 6.42009 81.8538 6.01886V2.24481H84.3238Z" fill="#1A1A1A"/>
<path d="M76.1901 7.18452V9.27843H75.1244C73.3272 9.27843 72.4286 8.3882 72.4286 6.60776V4.28816H71.5635V2.2444H72.4286V0.539185H74.8987V2.2444H76.1776V4.28816H74.8987V6.64537C74.8987 6.83762 74.9405 6.97555 75.0241 7.05914C75.116 7.14272 75.2665 7.18452 75.4755 7.18452H76.1901Z" fill="#1A1A1A"/>
<path d="M70.8317 2.24481V9.27884H68.3616V8.27577C68.1526 8.59341 67.8642 8.85253 67.4964 9.05315C67.1287 9.2454 66.7065 9.34153 66.2301 9.34153C65.4109 9.34153 64.7631 9.07404 64.2866 8.53907C63.8185 7.99574 63.5845 7.26016 63.5845 6.33232V2.24481H66.0295V6.01886C66.0295 6.42009 66.1339 6.73773 66.3429 6.97178C66.5602 7.19747 66.8445 7.31031 67.1955 7.31031C67.555 7.31031 67.8392 7.19747 68.0481 6.97178C68.2571 6.73773 68.3616 6.42009 68.3616 6.01886V2.24481H70.8317Z" fill="#1A1A1A"/>
<path d="M59.6325 2.18231C60.5186 2.18231 61.2124 2.4498 61.7139 2.98477C62.2238 3.51974 62.4787 4.25114 62.4787 5.17898V9.27903H60.0212V5.50498C60.0212 5.12883 59.9167 4.83627 59.7078 4.62729C59.4988 4.41832 59.2146 4.31383 58.8552 4.31383C58.4957 4.31383 58.2115 4.41832 58.0025 4.62729C57.7936 4.83627 57.6891 5.12883 57.6891 5.50498V9.27903H55.2316V5.50498C55.2316 5.12883 55.1271 4.83627 54.9181 4.62729C54.7175 4.41832 54.4375 4.31383 54.078 4.31383C53.7102 4.31383 53.4219 4.41832 53.2129 4.62729C53.0039 4.83627 52.8994 5.12883 52.8994 5.50498V9.27903H50.4419V2.245H52.8994V3.17284C53.1168 2.87192 53.3968 2.63369 53.7395 2.45816C54.0906 2.27426 54.4918 2.18231 54.9432 2.18231C55.4614 2.18231 55.9212 2.29516 56.3224 2.52085C56.732 2.74654 57.0538 3.06418 57.2879 3.47376C57.5386 3.08925 57.8688 2.77997 58.2784 2.54593C58.688 2.30352 59.1394 2.18231 59.6325 2.18231Z" fill="#1A1A1A"/>
</svg>
