<svg width="24" height="24" viewBox="0 0 24 24" fill="none" xmlns="http://www.w3.org/2000/svg">
<g clip-path="url(#clip0_294_5430)">
<mask id="mask0_294_5430" style="mask-type:luminance" maskUnits="userSpaceOnUse" x="0" y="0" width="24" height="24">
<path d="M24 0H0V24H24V0Z" fill="white"/>
</mask>
<g mask="url(#mask0_294_5430)">
<path d="M12 2.16221C15.2041 2.16221 15.5836 2.1744 16.849 2.23213C18.019 2.28553 18.6544 2.48102 19.0772 2.64531C19.6373 2.863 20.0371 3.12308 20.457 3.54298C20.8769 3.96287 21.137 4.36266 21.3547 4.92277C21.519 5.34562 21.7145 5.98102 21.7679 7.15097C21.8256 8.41636 21.8378 8.79586 21.8378 12C21.8378 15.2042 21.8256 15.5837 21.7679 16.849C21.7145 18.019 21.519 18.6544 21.3547 19.0773C21.137 19.6374 20.8769 20.0372 20.457 20.4571C20.0371 20.877 19.6373 21.1371 19.0772 21.3547C18.6544 21.519 18.019 21.7145 16.849 21.7679C15.5838 21.8257 15.2043 21.8378 12 21.8378C8.79562 21.8378 8.41613 21.8257 7.15097 21.7679C5.98097 21.7145 5.34558 21.519 4.92277 21.3547C4.36261 21.1371 3.96282 20.877 3.54293 20.4571C3.12303 20.0372 2.86295 19.6374 2.64531 19.0773C2.48097 18.6544 2.28548 18.019 2.23208 16.8491C2.17435 15.5837 2.16216 15.2042 2.16216 12C2.16216 8.79586 2.17435 8.41636 2.23208 7.15102C2.28548 5.98102 2.48097 5.34562 2.64531 4.92277C2.86295 4.36266 3.12303 3.96287 3.54293 3.54298C3.96282 3.12308 4.36261 2.863 4.92277 2.64531C5.34558 2.48102 5.98097 2.28553 7.15092 2.23213C8.41631 2.1744 8.79581 2.16221 12 2.16221ZM12 0C8.74097 0 8.33236 0.0138139 7.05244 0.0722133C5.77509 0.130517 4.90284 0.333343 4.1395 0.630009C3.35039 0.936675 2.68118 1.347 2.01406 2.01411C1.34695 2.68123 0.936628 3.35044 0.629963 4.13955C0.333296 4.90289 0.13047 5.77514 0.0721655 7.05248C0.0137663 8.33236 0 8.74102 0 12C0 15.259 0.0137663 15.6677 0.0721655 16.9476C0.13047 18.2249 0.333296 19.0972 0.629963 19.8605C0.936628 20.6496 1.34695 21.3188 2.01406 21.9859C2.68118 22.653 3.35039 23.0634 4.1395 23.37C4.90284 23.6667 5.77509 23.8695 7.05244 23.9278C8.33236 23.9862 8.74097 24 12 24C15.259 24 15.6676 23.9862 16.9475 23.9278C18.2249 23.8695 19.0971 23.6667 19.8605 23.37C20.6496 23.0634 21.3188 22.653 21.9859 21.9859C22.653 21.3188 23.0633 20.6496 23.37 19.8605C23.6667 19.0972 23.8695 18.2249 23.9278 16.9476C23.9862 15.6677 24 15.259 24 12C24 8.74102 23.9862 8.33236 23.9278 7.05248C23.8695 5.77514 23.6667 4.90289 23.37 4.13955C23.0633 3.35044 22.653 2.68123 21.9859 2.01411C21.3188 1.347 20.6496 0.936675 19.8605 0.630009C19.0971 0.333343 18.2249 0.130517 16.9475 0.0722133C15.6676 0.0138139 15.259 0 12 0ZM12 5.83786C8.59673 5.83786 5.83781 8.59678 5.83781 12C5.83781 15.4033 8.59673 18.1622 12 18.1622C15.4032 18.1622 18.1621 15.4033 18.1621 12C18.1621 8.59678 15.4032 5.83786 12 5.83786ZM12 16C9.79083 16 7.99997 14.2092 7.99997 12C7.99997 9.79092 9.79083 8.00002 12 8.00002C14.2091 8.00002 16 9.79092 16 12C16 14.2092 14.2091 16 12 16ZM19.8456 5.59439C19.8456 6.38967 19.2009 7.03439 18.4056 7.03439C17.6103 7.03439 16.9656 6.38967 16.9656 5.59439C16.9656 4.79906 17.6103 4.1544 18.4056 4.1544C19.2009 4.1544 19.8456 4.79906 19.8456 5.59439Z" fill="#787878"/>
</g>
</g>
<defs>
<clipPath id="clip0_294_5430">
<rect width="24" height="24" fill="white"/>
</clipPath>
</defs>
</svg>
