<svg width="154" height="244" viewBox="0 0 154 244" fill="none" xmlns="http://www.w3.org/2000/svg">
<path d="M145.2 76.1873C145.2 104.168 145.2 132.148 145.2 160.104C145.2 188.059 145.2 216.04 145.2 243.97C133.671 237.327 122.142 230.659 110.613 223.991C110.613 208.592 110.613 193.142 110.613 177.743C110.613 162.319 110.613 146.894 110.613 131.444C106.693 144.629 102.772 157.789 98.8665 170.949C94.961 184.109 91.055 197.294 87.1489 210.429C77.4933 204.818 67.8518 199.257 58.2108 193.67C54.2613 175.881 50.3087 158.066 46.3765 140.276C42.4391 122.461 38.5069 104.621 34.5721 86.8056C34.5721 102.356 34.5721 117.932 34.5721 133.457C34.5721 148.982 34.5721 164.533 34.5721 180.058C23.043 173.39 11.5144 166.747 0 160.104C0 132.174 0 104.193 0 76.2627C0 48.3071 0 20.3264 0 -7.6543C6.95462 -3.62841 13.9391 0.397996 20.8942 4.42388C27.8494 8.44977 34.8333 12.4757 41.8031 16.5021C47.0015 37.6637 52.2141 58.8762 57.4125 80.0122C62.6104 101.148 67.823 122.361 73.0361 143.522C78.1178 128.299 83.2042 113.052 88.2822 97.8526C93.3676 82.6311 98.4603 67.4064 103.557 52.1577C110.498 56.1584 117.433 60.1691 124.379 64.1856C131.314 68.1958 138.26 72.1871 145.201 76.1884L145.2 76.1873Z" fill="#BCF107"/>
<path d="M6.16016 -18.9177C16.9119 -25.1248 27.6344 -31.3152 38.328 -37.4893C52.6534 -29.2522 66.9506 -20.9979 81.2472 -12.7441C95.515 -4.50698 109.812 3.74736 124.109 11.9844C132.623 7.05245 141.137 2.1367 149.651 -2.77906C139.132 -8.85217 128.576 -14.929 118.036 -21.0146C107.509 -27.0919 96.9681 -33.1776 86.4199 -39.2675C96.6488 -45.1726 106.906 -51.0949 117.135 -57C127.683 -50.9101 138.203 -44.837 148.751 -38.7472C159.27 -32.6746 169.818 -26.6009 180.338 -20.5116C189.84 -25.9974 199.313 -31.4664 208.786 -36.9355C218.259 -42.4051 227.732 -47.8736 237.205 -53.3432C247.143 -47.6056 257.081 -41.868 266.99 -36.1466C276.928 -30.4091 286.837 -24.6882 296.746 -18.9506C272.569 -4.97599 248.36 8.99238 224.158 22.9733C199.948 36.9584 175.746 50.9566 151.54 64.948C127.335 50.9734 103.1 36.9815 78.8942 23.0241C54.6598 9.04943 30.4249 -4.94249 6.1612 -18.9177H6.16016Z" fill="#BCF107"/>
</svg>
