<svg width="146" height="65" viewBox="0 0 146 65" fill="none" xmlns="http://www.w3.org/2000/svg">
<path d="M29.12 31.351C29.12 36.9625 29.12 42.574 29.12 48.1805C29.12 53.787 29.12 59.3986 29.12 65C26.8078 63.6678 24.4958 62.3305 22.1836 60.9932C22.1836 57.9048 22.1836 54.8064 22.1836 51.718C22.1836 48.6247 22.1836 45.5312 22.1836 42.4327C21.3974 45.077 20.6111 47.7162 19.8278 50.3555C19.0445 52.9948 18.2612 55.639 17.4778 58.2732C15.5414 57.1479 13.6077 56.0326 11.6742 54.9123C10.8822 51.3446 10.0895 47.7718 9.30085 44.204C8.5112 40.6312 7.72259 37.0533 6.93347 33.4805C6.93347 36.5992 6.93347 39.7229 6.93347 42.8364C6.93347 45.95 6.93347 49.0687 6.93347 52.1823C4.6213 50.845 2.30923 49.5128 0 48.1805C0 42.5791 0 36.9676 0 31.3661C0 25.7596 0 20.148 0 14.5364C1.39476 15.3438 2.79549 16.1513 4.19036 16.9587C5.58522 17.7661 6.98585 18.5735 8.38365 19.381C9.4262 23.625 10.4716 27.8792 11.5141 32.1181C12.5566 36.3569 13.602 40.6112 14.6475 44.8551C15.6666 41.8021 16.6867 38.7442 17.7051 35.696C18.725 32.6433 19.7463 29.5899 20.7685 26.5318C22.1604 27.3341 23.5513 28.1385 24.9444 28.944C26.3351 29.7482 27.7282 30.5487 29.1201 31.3512L29.12 31.351Z" fill="white"/>
<path d="M1.23584 12.2774C3.39212 11.0326 5.54251 9.79108 7.68714 8.55285C10.5601 10.2048 13.4274 11.8602 16.2946 13.5155C19.156 15.1675 22.0233 16.8229 24.8905 18.4749C26.598 17.4857 28.3055 16.4999 30.0131 15.514C27.9034 14.2961 25.7865 13.0773 23.6726 11.8569C21.5615 10.638 19.4474 9.41756 17.332 8.19623C19.3834 7.01196 21.4406 5.82422 23.492 4.63995C25.6074 5.86128 27.7171 7.07925 29.8325 8.30058C31.9422 9.51845 34.0576 10.7365 36.1673 11.9577C38.073 10.8576 39.9728 9.76074 41.8726 8.66391C43.7724 7.56699 45.6723 6.47027 47.5721 5.37334C49.5652 6.52402 51.5583 7.67469 53.5455 8.82212C55.5386 9.9728 57.5259 11.1201 59.513 12.2708C54.6643 15.0734 49.8092 17.8748 44.9554 20.6787C40.1002 23.4834 35.2464 26.2908 30.392 29.0968C25.5375 26.2941 20.6772 23.488 15.8227 20.6889C10.9625 17.8862 6.10216 15.0801 1.23605 12.2774H1.23584Z" fill="white"/>
<path d="M60.782 48.1825C60.782 42.5709 60.782 36.9595 60.782 31.353C60.782 25.7464 60.782 20.1349 60.782 14.5335C58.4698 15.8657 56.1578 17.203 53.8456 18.5403C53.8456 21.6286 53.8456 24.7271 53.8456 27.8155C53.8456 30.9088 53.8456 34.0022 53.8456 37.1008C53.0594 34.4565 52.2731 31.8173 51.4899 29.178C50.7065 26.5387 49.9232 23.8945 49.1398 21.2603C47.2034 22.3855 45.2697 23.5008 43.3362 24.6212C42.5442 28.1889 41.7515 31.7617 40.963 35.3295C40.1733 38.9022 39.3847 42.4801 38.5956 46.053C38.5956 42.9343 38.5956 39.8106 38.5956 36.697C38.5956 33.5835 38.5956 30.4647 38.5956 27.3512C36.2834 28.6885 33.9713 30.0207 31.6621 31.353C31.6621 36.9544 31.6621 42.5659 31.6621 48.1674C31.6621 53.7739 31.6621 59.3855 31.6621 64.997C33.057 64.1896 34.4576 63.3821 35.8525 62.5747C37.2472 61.7674 38.648 60.96 40.0458 60.1526C41.0882 55.9086 42.1337 51.6544 43.1761 47.4155C44.2186 43.1767 45.264 38.9224 46.3095 34.6785C47.3286 37.7316 48.3487 40.7894 49.3671 43.8377C50.387 46.8903 51.4084 49.9437 52.4305 53.0019C53.8224 52.1995 55.2133 51.3952 56.6064 50.5897C57.9971 49.7854 59.3902 48.985 60.7821 48.1825H60.782Z" fill="white"/>
<path d="M110.129 53.3815C110.129 52.2836 110.325 51.3244 110.716 50.5041C111.12 49.6838 111.663 49.0528 112.344 48.6111C113.038 48.1694 113.808 47.9485 114.654 47.9485C115.386 47.9485 116.017 48.0937 116.547 48.3839C117.077 48.6742 117.487 49.0654 117.777 49.5576V48.0811H121.488V58.7009H117.777V57.2244C117.487 57.7166 117.071 58.1078 116.528 58.3981C115.998 58.6883 115.373 58.8335 114.654 58.8335C113.808 58.8335 113.038 58.6126 112.344 58.1709C111.663 57.7292 111.12 57.0982 110.716 56.2779C110.325 55.4449 110.129 54.4795 110.129 53.3815ZM117.777 53.3815C117.777 52.7 117.588 52.1637 117.209 51.7725C116.843 51.3812 116.389 51.1856 115.846 51.1856C115.291 51.1856 114.83 51.3812 114.464 51.7725C114.098 52.1511 113.915 52.6874 113.915 53.3815C113.915 54.063 114.098 54.6057 114.464 55.0095C114.83 55.4008 115.291 55.5964 115.846 55.5964C116.389 55.5964 116.843 55.4008 117.209 55.0095C117.588 54.6183 117.777 54.0756 117.777 53.3815Z" fill="white"/>
<path d="M108.909 44.6926V58.701H105.198V44.6926H108.909Z" fill="white"/>
<path d="M92.0127 53.3815C92.0127 52.2836 92.2083 51.3244 92.5995 50.5041C93.0034 49.6838 93.546 49.0528 94.2275 48.6111C94.9217 48.1694 95.6915 47.9485 96.537 47.9485C97.269 47.9485 97.9 48.0937 98.4301 48.3839C98.9601 48.6742 99.3703 49.0654 99.6605 49.5576V48.0811H103.371V58.7009H99.6605V57.2244C99.3703 57.7166 98.9538 58.1078 98.4111 58.3981C97.8811 58.6883 97.2564 58.8335 96.537 58.8335C95.6915 58.8335 94.9217 58.6126 94.2275 58.1709C93.546 57.7292 93.0034 57.0982 92.5995 56.2779C92.2083 55.4449 92.0127 54.4795 92.0127 53.3815ZM99.6605 53.3815C99.6605 52.7 99.4712 52.1637 99.0926 51.7725C98.7266 51.3812 98.2723 51.1856 97.7296 51.1856C97.1744 51.1856 96.7137 51.3812 96.3477 51.7725C95.9817 52.1511 95.7988 52.6874 95.7988 53.3815C95.7988 54.063 95.9817 54.6057 96.3477 55.0095C96.7137 55.4008 97.1744 55.5964 97.7296 55.5964C98.2723 55.5964 98.7266 55.4008 99.0926 55.0095C99.4712 54.6183 99.6605 54.0756 99.6605 53.3815Z" fill="white"/>
<path d="M91.8492 48.0811L89.1422 58.7009H84.9775L83.501 52.2646L81.9676 58.7009H77.8219L75.1338 48.0811H78.8252L80.0178 55.1231L81.589 48.0811H85.5644L87.1924 55.142L88.3661 48.0811H91.8492Z" fill="white"/>
<path d="M107.708 33.3391C107.708 32.2411 107.904 31.282 108.295 30.4617C108.699 29.6414 109.248 29.0104 109.942 28.5687C110.636 28.1269 111.406 27.9061 112.251 27.9061C112.933 27.9061 113.539 28.0512 114.069 28.3415C114.611 28.6191 115.034 29.004 115.337 29.4962V24.6501H119.066V38.6585H115.337V37.1819C115.047 37.6741 114.636 38.0653 114.106 38.3556C113.576 38.6459 112.952 38.791 112.232 38.791C111.387 38.791 110.617 38.5702 109.923 38.1284C109.241 37.6867 108.699 37.0557 108.295 36.2354C107.904 35.4025 107.708 34.437 107.708 33.3391ZM115.356 33.3391C115.356 32.6576 115.167 32.1212 114.788 31.73C114.422 31.3388 113.968 31.1432 113.425 31.1432C112.87 31.1432 112.409 31.3388 112.043 31.73C111.677 32.1086 111.494 32.645 111.494 33.3391C111.494 34.0206 111.677 34.5632 112.043 34.9671C112.409 35.3583 112.87 35.5539 113.425 35.5539C113.968 35.5539 114.422 35.3583 114.788 34.9671C115.167 34.5759 115.356 34.0332 115.356 33.3391Z" fill="white"/>
<path d="M102.569 27.944C103.794 27.944 104.765 28.3542 105.485 29.1745C106.204 29.9822 106.564 31.0801 106.564 32.4684V38.6586H102.853V32.9606C102.853 32.3548 102.696 31.8815 102.38 31.5408C102.065 31.1874 101.642 31.0107 101.112 31.0107C100.557 31.0107 100.121 31.1874 99.8057 31.5408C99.4902 31.8815 99.3324 32.3548 99.3324 32.9606V38.6586H95.6221V28.0387H99.3324V29.5531C99.6605 29.0735 100.102 28.6886 100.658 28.3984C101.213 28.0955 101.85 27.944 102.569 27.944Z" fill="white"/>
<path d="M93.7977 28.0387V38.6586H90.0684V37.1442C89.7529 37.6237 89.3175 38.015 88.7622 38.3178C88.2069 38.6081 87.5696 38.7532 86.8502 38.7532C85.6135 38.7532 84.6354 38.3494 83.9161 37.5417C83.2093 36.7214 82.856 35.6108 82.856 34.21V28.0387H86.5474V33.7367C86.5474 34.3425 86.7051 34.822 87.0206 35.1754C87.3487 35.5162 87.7778 35.6865 88.3079 35.6865C88.8505 35.6865 89.2796 35.5162 89.5951 35.1754C89.9106 34.822 90.0684 34.3425 90.0684 33.7367V28.0387H93.7977Z" fill="white"/>
<path d="M81.8922 31.1243H80.2263V38.6585H76.497V31.1243H75.3423V28.0386H76.497V27.944C76.497 26.581 76.8946 25.5398 77.6896 24.8205C78.4973 24.0885 79.6521 23.7225 81.1539 23.7225C81.4568 23.7225 81.6902 23.7288 81.8543 23.7415V26.9028C81.7533 26.8902 81.6145 26.8839 81.4378 26.8839C81.034 26.8839 80.7374 26.9785 80.5481 27.1678C80.3588 27.3445 80.2515 27.6348 80.2263 28.0386H81.8922V31.1243Z" fill="white"/>
<path d="M145.429 4.60767V18.6161H141.718V4.60767H145.429Z" fill="white"/>
<path d="M128.533 13.2966C128.533 12.1987 128.728 11.2395 129.12 10.4192C129.523 9.59892 130.066 8.96791 130.748 8.52621C131.442 8.0845 132.212 7.86365 133.057 7.86365C133.789 7.86365 134.42 8.00878 134.95 8.29904C135.48 8.58931 135.89 8.98053 136.181 9.47272V7.99616H139.891V18.616H136.181V17.1395C135.89 17.6317 135.474 18.0229 134.931 18.3132C134.401 18.6034 133.776 18.7486 133.057 18.7486C132.212 18.7486 131.442 18.5277 130.748 18.086C130.066 17.6443 129.523 17.0133 129.12 16.193C128.728 15.36 128.533 14.3946 128.533 13.2966ZM136.181 13.2966C136.181 12.6151 135.991 12.0788 135.613 11.6876C135.247 11.2963 134.792 11.1007 134.25 11.1007C133.694 11.1007 133.234 11.2963 132.868 11.6876C132.502 12.0662 132.319 12.6025 132.319 13.2966C132.319 13.9781 132.502 14.5208 132.868 14.9246C133.234 15.3159 133.694 15.5115 134.25 15.5115C134.792 15.5115 135.247 15.3159 135.613 14.9246C135.991 14.5334 136.181 13.9907 136.181 13.2966Z" fill="white"/>
<path d="M127.313 7.99622V18.6161H123.584V17.1017C123.269 17.5812 122.833 17.9725 122.278 18.2754C121.723 18.5656 121.085 18.7108 120.366 18.7108C119.129 18.7108 118.151 18.3069 117.432 17.4992C116.725 16.6789 116.372 15.5683 116.372 14.1675V7.99622H120.063V13.6942C120.063 14.3 120.221 14.7796 120.536 15.1329C120.864 15.4737 121.293 15.6441 121.824 15.6441C122.366 15.6441 122.795 15.4737 123.111 15.1329C123.426 14.7796 123.584 14.3 123.584 13.6942V7.99622H127.313Z" fill="white"/>
<path d="M115.032 15.4548V18.6162H113.423C110.71 18.6162 109.353 17.2721 109.353 14.584V11.0819H108.047V7.99627H109.353V5.42175H113.082V7.99627H115.013V11.0819H113.082V14.6408C113.082 14.9311 113.145 15.1393 113.272 15.2655C113.41 15.3917 113.638 15.4548 113.953 15.4548H115.032Z" fill="white"/>
<path d="M106.941 7.99622V18.6161H103.212V17.1017C102.896 17.5812 102.461 17.9725 101.906 18.2754C101.35 18.5656 100.713 18.7108 99.9938 18.7108C98.757 18.7108 97.779 18.3069 97.0596 17.4992C96.3529 16.6789 95.9995 15.5683 95.9995 14.1675V7.99622H99.6909V13.6942C99.6909 14.3 99.8487 14.7796 100.164 15.1329C100.492 15.4737 100.921 15.6441 101.451 15.6441C101.994 15.6441 102.423 15.4737 102.739 15.1329C103.054 14.7796 103.212 14.3 103.212 13.6942V7.99622H106.941Z" fill="white"/>
<path d="M90.0317 7.90155C91.3694 7.90155 92.4169 8.3054 93.1741 9.11309C93.9439 9.92078 94.3288 11.025 94.3288 12.4259V18.6161H90.6185V12.9181C90.6185 12.3502 90.4608 11.9085 90.1452 11.593C89.8297 11.2774 89.4007 11.1197 88.858 11.1197C88.3153 11.1197 87.8862 11.2774 87.5707 11.593C87.2552 11.9085 87.0975 12.3502 87.0975 12.9181V18.6161H83.3871V12.9181C83.3871 12.3502 83.2294 11.9085 82.9139 11.593C82.611 11.2774 82.1882 11.1197 81.6455 11.1197C81.0903 11.1197 80.6549 11.2774 80.3394 11.593C80.0239 11.9085 79.8661 12.3502 79.8661 12.9181V18.6161H76.1558V7.9962H79.8661V9.39704C80.1942 8.94272 80.617 8.58304 81.1344 8.31802C81.6645 8.04037 82.2702 7.90155 82.9517 7.90155C83.7342 7.90155 84.4283 8.07192 85.0341 8.41267C85.6525 8.75341 86.1383 9.23298 86.4917 9.85137C86.8703 9.27084 87.3688 8.80389 87.9872 8.45053C88.6056 8.08454 89.2871 7.90155 90.0317 7.90155Z" fill="white"/>
<path fill-rule="evenodd" clip-rule="evenodd" d="M36.0738 1.00012C37.6107 1.00012 38.8566 2.24602 38.8566 3.78292C38.8566 5.31982 37.6107 6.56572 36.0738 6.56572C34.5369 6.56572 33.291 5.31982 33.291 3.78292C33.291 2.24602 34.5369 1.00012 36.0738 1.00012Z" stroke="white" stroke-width="0.339615" stroke-miterlimit="22.9256" stroke-linecap="round" stroke-linejoin="round"/>
<path d="M36.7764 5.11095L36.0906 3.93359H35.6362V5.11095H35.2603V2.23157H36.1898C36.4073 2.23157 36.5905 2.26875 36.7392 2.34311C36.8907 2.41747 37.0036 2.51799 37.0779 2.64468C37.1523 2.77137 37.1895 2.91595 37.1895 3.07845C37.1895 3.27674 37.1316 3.45162 37.016 3.6031C36.9031 3.75457 36.7323 3.85509 36.5037 3.90467L37.2267 5.11095H36.7764ZM35.6362 3.63201H36.1898C36.3936 3.63201 36.5464 3.58244 36.6483 3.48329C36.7502 3.38139 36.8012 3.24644 36.8012 3.07845C36.8012 2.90769 36.7502 2.7755 36.6483 2.68186C36.5492 2.58822 36.3963 2.5414 36.1898 2.5414H35.6362V3.63201Z" fill="white"/>
<path d="M37.1804 3.07825C37.1804 2.91732 37.1433 2.77426 37.0699 2.6492C37.0057 2.54003 36.9125 2.4504 36.7897 2.38036L36.7352 2.35136C36.5881 2.27782 36.4062 2.24078 36.1896 2.24078H35.2696V5.10165H35.6269V3.92457H36.0963L36.0987 3.929L36.7814 5.10165H37.2104L36.4958 3.90934L36.4894 3.89852L36.5017 3.89558C36.7287 3.84636 36.8976 3.74703 37.0089 3.59774L37.0487 3.54024C37.1363 3.40409 37.1804 3.2501 37.1804 3.07825ZM36.8015 3.07825C36.8015 2.92895 36.762 2.80931 36.6841 2.71899L36.6482 2.68213C36.5614 2.6002 36.4338 2.55377 36.2648 2.54353L36.1896 2.54157V2.53223C36.3973 2.53223 36.553 2.57937 36.6546 2.67525L36.6914 2.71309C36.771 2.80537 36.8103 2.92737 36.8104 3.07825C36.8104 3.24817 36.7589 3.38572 36.6551 3.48962V3.49011C36.5508 3.59154 36.3948 3.64148 36.1896 3.64148H35.6269V2.53223H36.1896V2.54157H35.6362V3.63215H36.1896C36.368 3.63215 36.5076 3.59407 36.6079 3.51812L36.6482 3.48323C36.7374 3.39401 36.788 3.27958 36.7991 3.13969L36.8015 3.07825ZM37.1868 3.15198C37.1741 3.32023 37.1174 3.47069 37.0163 3.60315L36.9711 3.6577C36.8596 3.77906 36.7037 3.86154 36.5037 3.90491L37.2266 5.11099H36.7765L36.0908 3.93342H35.6362V5.11099H35.2603V2.23145H36.1896L36.3464 2.23882C36.4966 2.25274 36.6276 2.28728 36.7391 2.34301C36.8906 2.41737 37.0039 2.51809 37.0782 2.64477C37.1525 2.77138 37.1897 2.91591 37.1898 3.07825L37.1868 3.15198Z" fill="white"/>
</svg>
