<svg width="275" height="301" viewBox="0 0 275 301" fill="none" xmlns="http://www.w3.org/2000/svg">
<path d="M145.2 133.187C145.2 161.168 145.2 189.148 145.2 217.104C145.2 245.059 145.2 273.04 145.2 300.97C133.671 294.327 122.142 287.659 110.613 280.991C110.613 265.592 110.613 250.142 110.613 234.743C110.613 219.319 110.613 203.894 110.613 188.444C106.693 201.629 102.772 214.789 98.8665 227.949C94.961 241.109 91.055 254.294 87.1489 267.429C77.4933 261.818 67.8518 256.257 58.2108 250.67C54.2613 232.881 50.3087 215.066 46.3765 197.276C42.4391 179.461 38.5069 161.621 34.5721 143.806C34.5721 159.356 34.5721 174.932 34.5721 190.457C34.5721 205.982 34.5721 221.533 34.5721 237.058C23.043 230.39 11.5144 223.747 0 217.104C0 189.174 0 161.193 0 133.263C0 105.307 0 77.3264 0 49.3457C6.95462 53.3716 13.9391 57.398 20.8942 61.4239C27.8494 65.4498 34.8333 69.4757 41.8031 73.5021C47.0015 94.6637 52.2141 115.876 57.4125 137.012C62.6104 158.148 67.823 179.361 73.0361 200.522C78.1178 185.299 83.2042 170.052 88.2822 154.853C93.3676 139.631 98.4603 124.406 103.557 109.158C110.498 113.158 117.433 117.169 124.379 121.186C131.314 125.196 138.26 129.187 145.201 133.188L145.2 133.187Z" fill="white" fill-opacity="0.08"/>
<path d="M6.16016 38.0823C16.9119 31.8752 27.6344 25.6848 38.328 19.5107C52.6534 27.7478 66.9506 36.0021 81.2472 44.2559C95.515 52.493 109.812 60.7474 124.109 68.9844C132.623 64.0525 141.137 59.1367 149.651 54.2209C139.132 48.1478 128.576 42.071 118.036 35.9854C107.509 29.9081 96.9681 23.8224 86.4199 17.7325C96.6488 11.8274 106.906 5.90509 117.135 0C127.683 6.08986 138.203 12.163 148.751 18.2528C159.27 24.3254 169.818 30.3991 180.338 36.4884C189.84 31.0026 199.313 25.5336 208.786 20.0645C218.259 14.5949 227.732 9.12642 237.205 3.65685C247.143 9.39443 257.081 15.132 266.99 20.8534C276.928 26.5909 286.837 32.3118 296.746 38.0494C272.569 52.024 248.36 65.9924 224.158 79.9733C199.948 93.9584 175.746 107.957 151.54 121.948C127.335 107.973 103.1 93.9815 78.8942 80.0241C54.6598 66.0494 30.4249 52.0575 6.1612 38.0823H6.16016Z" fill="white" fill-opacity="0.08"/>
<path d="M303.075 217.115C303.075 189.134 303.075 161.154 303.075 133.198C303.075 105.243 303.075 77.262 303.075 49.332C291.545 55.9747 280.017 62.6429 268.488 69.3107C268.488 84.7102 268.488 100.16 268.488 115.559C268.488 130.984 268.488 146.408 268.488 161.858C264.568 148.673 260.647 135.513 256.741 122.353C252.835 109.193 248.929 96.0084 245.023 82.8734C235.368 88.4843 225.726 94.0455 216.085 99.6318C212.136 117.421 208.183 135.236 204.252 153.026C200.314 170.841 196.382 188.681 192.447 206.496C192.447 190.946 192.447 175.37 192.447 159.845C192.447 144.32 192.447 128.769 192.447 113.244C180.918 119.912 169.389 126.555 157.875 133.198C157.875 161.128 157.875 189.109 157.875 217.039C157.875 244.995 157.875 272.976 157.875 300.956C164.83 296.93 171.814 292.904 178.769 288.878C185.724 284.852 192.708 280.826 199.678 276.801C204.876 255.639 210.089 234.426 215.287 213.29C220.485 192.154 225.697 170.941 230.911 149.78C235.992 165.004 241.079 180.251 246.157 195.451C251.242 210.672 256.335 225.897 261.432 241.145C268.372 237.145 275.307 233.134 282.254 229.118C289.188 225.107 296.135 221.116 303.075 217.115H303.075Z" fill="white" fill-opacity="0.08"/>
</svg>
