<svg width="301" height="278" viewBox="0 0 301 278" fill="none" xmlns="http://www.w3.org/2000/svg">
<rect x="20.7277" y="0.404039" width="243.685" height="276.725" rx="7.52554" fill="white" stroke="#E6E6E6" stroke-width="0.807956"/>
<mask id="mask0_311_886" style="mask-type:alpha" maskUnits="userSpaceOnUse" x="20" y="0" width="245" height="278">
<rect x="20.6541" y="0.330458" width="243.833" height="276.872" rx="7.59912" fill="white" stroke="#E6E6E6" stroke-width="0.660793"/>
</mask>
<g mask="url(#mask0_311_886)">
<path d="M26.271 277.233C33.9346 271.142 64.4355 269.421 79.055 267.535C97.3293 265.177 102.045 275.198 116.193 256.924C130.341 238.649 199.312 239.828 203.438 230.986C206.74 223.912 245.293 213.498 264.156 209.175" stroke="#177D52" stroke-width="0.660793"/>
<path d="M79.055 268.051C64.4355 269.937 33.9346 271.658 26.271 277.75V336.11H264.156V209.691C245.293 214.014 206.74 224.428 203.438 231.502C199.312 240.345 130.341 239.166 116.193 257.44C102.045 275.714 97.3293 265.693 79.055 268.051Z" fill="url(#paint0_linear_311_886)"/>
</g>
<path d="M47.4955 34.4318V26.8194H48.7853L51.3016 31.8732L53.8179 26.8194H55.1078V34.4318H53.7651V29.8855L51.5554 34.4318H51.0479L48.8382 29.8855V34.4318H47.4955ZM58.882 34.6009C58.4344 34.6009 58.0697 34.5252 57.7877 34.3736C57.5058 34.2221 57.2855 34.03 57.1269 33.7974C56.9719 33.5648 56.8608 33.3234 56.7939 33.0732C56.7269 32.8194 56.6864 32.5886 56.6723 32.3807C56.6582 32.1727 56.6512 32.0212 56.6512 31.926V28.7225H58.1102V31.4185C58.1102 31.5489 58.1172 31.7163 58.1313 31.9207C58.1454 32.1216 58.1895 32.3243 58.2635 32.5287C58.3375 32.7331 58.4573 32.904 58.623 33.0415C58.7921 33.1789 59.03 33.2476 59.3366 33.2476C59.46 33.2476 59.5921 33.2282 59.7331 33.1895C59.8741 33.1507 60.0062 33.0767 60.1296 32.9674C60.2529 32.8547 60.3534 32.6908 60.4309 32.4758C60.512 32.2573 60.5525 31.9719 60.5525 31.6194L61.3771 32.0106C61.3771 32.4617 61.2855 32.8846 61.1023 33.2793C60.919 33.6741 60.6423 33.993 60.2723 34.2362C59.9058 34.4793 59.4423 34.6009 58.882 34.6009ZM60.7322 34.4318V32.5393H60.5525V28.7225H62.0009V34.4318H60.7322ZM67.0691 34.4318C66.6744 34.5058 66.2868 34.5375 65.9061 34.5269C65.529 34.5199 65.1907 34.4547 64.8912 34.3313C64.5951 34.2044 64.3696 34.0018 64.2145 33.7234C64.0735 33.4626 63.9995 33.1983 63.9925 32.9304C63.9854 32.6591 63.9819 32.3525 63.9819 32.0106V27.1366H65.4198V31.926C65.4198 32.1481 65.4216 32.3489 65.4251 32.5287C65.4321 32.7049 65.4691 32.8459 65.5361 32.9516C65.663 33.1525 65.8656 33.2617 66.144 33.2793C66.4224 33.297 66.7308 33.2829 67.0691 33.237V34.4318ZM63.0092 29.8326V28.7225H67.0691V29.8326H63.0092ZM70.6317 34.6009C70.1841 34.6009 69.8194 34.5252 69.5374 34.3736C69.2555 34.2221 69.0352 34.03 68.8767 33.7974C68.7216 33.5648 68.6106 33.3234 68.5436 33.0732C68.4767 32.8194 68.4361 32.5886 68.422 32.3807C68.4079 32.1727 68.4009 32.0212 68.4009 31.926V28.7225H69.8599V31.4185C69.8599 31.5489 69.867 31.7163 69.8811 31.9207C69.8952 32.1216 69.9392 32.3243 70.0132 32.5287C70.0872 32.7331 70.2071 32.904 70.3727 33.0415C70.5419 33.1789 70.7797 33.2476 71.0863 33.2476C71.2097 33.2476 71.3419 33.2282 71.4828 33.1895C71.6238 33.1507 71.7559 33.0767 71.8793 32.9674C72.0026 32.8547 72.1031 32.6908 72.1806 32.4758C72.2617 32.2573 72.3022 31.9719 72.3022 31.6194L73.1269 32.0106C73.1269 32.4617 73.0352 32.8846 72.852 33.2793C72.6687 33.6741 72.3921 33.993 72.022 34.2362C71.6555 34.4793 71.1921 34.6009 70.6317 34.6009ZM72.4819 34.4318V32.5393H72.3022V28.7225H73.7507V34.4318H72.4819ZM76.9792 34.5904C76.5704 34.5904 76.2233 34.5128 75.9378 34.3578C75.6559 34.1992 75.4409 33.9895 75.2929 33.7287C75.1484 33.4644 75.0761 33.1736 75.0761 32.8564C75.0761 32.5921 75.1167 32.3507 75.1977 32.1322C75.2788 31.9137 75.4092 31.7216 75.5889 31.556C75.7722 31.3868 76.0171 31.2459 76.3237 31.1331C76.5352 31.0556 76.7871 30.9868 77.0797 30.9269C77.3722 30.867 77.7034 30.8106 78.0735 30.7578C78.4435 30.7014 78.8506 30.6397 79.2946 30.5727L78.7766 30.8582C78.7766 30.5199 78.6955 30.2714 78.5334 30.1128C78.3713 29.9542 78.0999 29.8749 77.7193 29.8749C77.5078 29.8749 77.2876 29.926 77.0585 30.0282C76.8294 30.1304 76.6691 30.3119 76.5775 30.5727L75.277 30.1604C75.4215 29.6882 75.6929 29.304 76.0911 29.008C76.4893 28.7119 77.0321 28.5639 77.7193 28.5639C78.2233 28.5639 78.6708 28.6415 79.062 28.7965C79.4532 28.9516 79.7493 29.2194 79.9501 29.6C80.0629 29.8115 80.1299 30.023 80.151 30.2344C80.1722 30.4459 80.1827 30.682 80.1827 30.9428V34.4318H78.9246V33.2582L79.1043 33.5014C78.8259 33.8855 78.5246 34.1639 78.2004 34.3366C77.8797 34.5058 77.4726 34.5904 76.9792 34.5904ZM77.2858 33.4591C77.5501 33.4591 77.7722 33.4133 77.9519 33.3216C78.1352 33.2265 78.2797 33.119 78.3854 32.9992C78.4946 32.8793 78.5686 32.7789 78.6074 32.6978C78.6814 32.5428 78.7237 32.363 78.7343 32.1586C78.7484 31.9507 78.7554 31.778 78.7554 31.6406L79.1783 31.7463C78.7519 31.8168 78.4065 31.8767 78.1422 31.926C77.8779 31.9719 77.6647 32.0141 77.5026 32.0529C77.3404 32.0917 77.1977 32.134 77.0744 32.1798C76.9334 32.2362 76.8189 32.2978 76.7308 32.3648C76.6462 32.4282 76.5827 32.4987 76.5404 32.5763C76.5017 32.6538 76.4823 32.7401 76.4823 32.8353C76.4823 32.9657 76.514 33.0785 76.5775 33.1736C76.6444 33.2652 76.7378 33.3357 76.8576 33.3851C76.9775 33.4344 77.1202 33.4591 77.2858 33.4591ZM81.8282 34.4318V26.6608H83.2661V34.4318H81.8282ZM87.2979 34.4318V26.8194H91.9499V28.2573H88.7358V29.9067H91.3155V31.3445H88.7358V34.4318H87.2979ZM95.1946 34.6009C94.7471 34.6009 94.3823 34.5252 94.1004 34.3736C93.8184 34.2221 93.5982 34.03 93.4396 33.7974C93.2845 33.5648 93.1735 33.3234 93.1065 33.0732C93.0396 32.8194 92.999 32.5886 92.9849 32.3807C92.9708 32.1727 92.9638 32.0212 92.9638 31.926V28.7225H94.4228V31.4185C94.4228 31.5489 94.4299 31.7163 94.444 31.9207C94.4581 32.1216 94.5021 32.3243 94.5761 32.5287C94.6501 32.7331 94.77 32.904 94.9356 33.0415C95.1048 33.1789 95.3426 33.2476 95.6493 33.2476C95.7726 33.2476 95.9048 33.2282 96.0457 33.1895C96.1867 33.1507 96.3189 33.0767 96.4422 32.9674C96.5656 32.8547 96.666 32.6908 96.7435 32.4758C96.8246 32.2573 96.8651 31.9719 96.8651 31.6194L97.6898 32.0106C97.6898 32.4617 97.5982 32.8846 97.4149 33.2793C97.2316 33.6741 96.955 33.993 96.5849 34.2362C96.2184 34.4793 95.755 34.6009 95.1946 34.6009ZM97.0449 34.4318V32.5393H96.8651V28.7225H98.3136V34.4318H97.0449ZM103.847 34.4318V31.7357C103.847 31.6053 103.84 31.4397 103.826 31.2388C103.812 31.0344 103.768 30.83 103.694 30.6256C103.62 30.4212 103.498 30.2503 103.329 30.1128C103.163 29.9754 102.927 29.9067 102.621 29.9067C102.497 29.9067 102.365 29.926 102.224 29.9648C102.083 30.0036 101.951 30.0793 101.828 30.1921C101.704 30.3014 101.602 30.4635 101.521 30.6785C101.443 30.8934 101.405 31.1789 101.405 31.5348L100.58 31.1437C100.58 30.6926 100.672 30.2696 100.855 29.8749C101.038 29.4802 101.313 29.1613 101.68 28.9181C102.05 28.6749 102.515 28.5533 103.075 28.5533C103.523 28.5533 103.888 28.6291 104.169 28.7807C104.451 28.9322 104.67 29.1243 104.825 29.3569C104.984 29.5895 105.096 29.8326 105.163 30.0864C105.23 30.3366 105.271 30.5657 105.285 30.7736C105.299 30.9815 105.306 31.1331 105.306 31.2282V34.4318H103.847ZM99.9457 34.4318V28.7225H101.225V30.615H101.405V34.4318H99.9457ZM109.055 34.5904C108.53 34.5904 108.07 34.4582 107.675 34.1939C107.281 33.9296 106.972 33.5701 106.75 33.1155C106.532 32.6608 106.422 32.1481 106.422 31.5771C106.422 30.9956 106.534 30.4793 106.756 30.0282C106.981 29.5736 107.297 29.2159 107.702 28.9551C108.107 28.6943 108.583 28.5639 109.129 28.5639C109.672 28.5639 110.128 28.6961 110.498 28.9604C110.868 29.2247 111.148 29.5842 111.339 30.0388C111.529 30.4934 111.624 31.0062 111.624 31.5771C111.624 32.1481 111.527 32.6608 111.334 33.1155C111.143 33.5701 110.858 33.9296 110.477 34.1939C110.097 34.4582 109.622 34.5904 109.055 34.5904ZM109.288 33.3111C109.608 33.3111 109.864 33.2388 110.054 33.0943C110.248 32.9498 110.387 32.7472 110.472 32.4864C110.556 32.2256 110.599 31.9225 110.599 31.5771C110.599 31.2318 110.556 30.9287 110.472 30.6679C110.387 30.4071 110.252 30.2044 110.065 30.06C109.882 29.9155 109.64 29.8432 109.341 29.8432C109.02 29.8432 108.756 29.9225 108.548 30.0811C108.343 30.2362 108.192 30.4459 108.093 30.7102C107.994 30.971 107.945 31.26 107.945 31.5771C107.945 31.8978 107.993 32.1904 108.088 32.4547C108.183 32.7155 108.329 32.9234 108.526 33.0785C108.724 33.2335 108.978 33.3111 109.288 33.3111ZM110.599 34.4318V30.5199H110.419V26.8194H111.867V34.4318H110.599Z" fill="#666666"/>
<rect x="46.7554" y="132.819" width="191.63" height="6.46365" rx="1.61591" fill="#ECECEC"/>
<rect x="46.7554" y="151.178" width="191.63" height="6.46365" rx="1.61591" fill="#ECECEC"/>
<rect x="46.7554" y="169.535" width="191.63" height="6.46365" rx="1.61591" fill="#ECECEC"/>
<rect x="46.7554" y="187.893" width="191.63" height="6.46365" rx="1.61591" fill="#ECECEC"/>
<rect x="106.227" y="60.1322" width="109.031" height="13.2159" rx="1.61591" fill="#ECECEC"/>
<rect x="47.1593" y="61.1971" width="37.518" height="37.518" rx="18.759" fill="#ECECEC"/>
<rect x="47.1593" y="61.1971" width="37.518" height="37.518" rx="18.759" stroke="#E6E6E6" stroke-width="0.807956"/>
<path d="M110.441 98.6932L109.963 97.6332C109.834 97.3402 109.709 97.0946 109.588 96.8963C109.467 96.6895 109.312 96.5344 109.123 96.431C108.942 96.3275 108.692 96.2758 108.373 96.2758H106.628V94.7763H108.282C108.438 94.7763 108.61 94.7676 108.8 94.7504C108.998 94.7246 109.187 94.6599 109.368 94.5565C109.549 94.4531 109.696 94.285 109.808 94.0523C109.929 93.8196 109.989 93.4835 109.989 93.044C109.989 92.751 109.95 92.514 109.873 92.333C109.795 92.1434 109.692 91.9969 109.562 91.8935C109.442 91.7901 109.308 91.7168 109.162 91.6737C109.015 91.6306 108.869 91.6048 108.722 91.5961C108.576 91.5875 108.446 91.5832 108.334 91.5832V91.1049L110.907 91.1437V91.7771C111.217 91.8202 111.463 91.915 111.644 92.0615C111.825 92.208 111.954 92.3761 112.031 92.5657C112.109 92.7553 112.148 92.9535 112.148 93.1604C112.148 93.4706 112.1 93.7507 112.006 94.0006C111.911 94.2419 111.764 94.4574 111.566 94.647C111.368 94.828 111.109 94.9788 110.79 95.0994C110.472 95.2115 110.084 95.2934 109.627 95.3451V95.539C110.178 95.5648 110.614 95.6812 110.933 95.888C111.26 96.0862 111.514 96.3319 111.695 96.6249C111.876 96.9179 112.04 97.2152 112.187 97.5169L112.755 98.6932H110.441ZM106.628 93.7421V92.682H113.156V93.7421H106.628ZM106.628 91.5832V90.0319H113.156V91.5832H106.628ZM113.96 96.9481V94.996C114.391 94.4703 114.762 93.9834 115.072 93.5352C115.391 93.0871 115.662 92.6648 115.886 92.2684C116.11 91.8719 116.296 91.4884 116.442 91.1178C116.597 90.7473 116.731 90.381 116.843 90.019H120.45V98.564H118.381V91.3635H118.252C118.062 91.8633 117.851 92.3373 117.619 92.7855C117.386 93.225 117.132 93.643 116.856 94.0394C116.589 94.4272 116.304 94.8064 116.003 95.177V95.3192H121.665V96.9481H113.96ZM126.337 98.7449C125.777 98.7449 125.265 98.6501 124.799 98.4605C124.342 98.2623 123.95 97.9779 123.623 97.6073C123.295 97.2368 123.045 96.7757 122.873 96.2241C122.701 95.6726 122.614 95.0434 122.614 94.3367C122.614 93.337 122.778 92.5097 123.106 91.8547C123.433 91.1911 123.881 90.6955 124.45 90.3681C125.028 90.0319 125.678 89.8639 126.402 89.8639C127.143 89.8639 127.794 90.0319 128.354 90.3681C128.914 90.7042 129.35 91.1997 129.66 91.8547C129.97 92.5097 130.125 93.3198 130.125 94.285C130.125 95.0176 130.03 95.6639 129.841 96.2241C129.66 96.7843 129.397 97.2497 129.052 97.6203C128.716 97.9909 128.315 98.2709 127.85 98.4605C127.393 98.6501 126.889 98.7449 126.337 98.7449ZM126.389 97.1161C126.579 97.1161 126.768 97.073 126.958 96.9868C127.156 96.892 127.337 96.7412 127.501 96.5344C127.665 96.3275 127.794 96.0518 127.889 95.707C127.984 95.3537 128.031 94.9142 128.031 94.3884C128.031 93.7593 127.962 93.2293 127.824 92.7984C127.686 92.3675 127.492 92.04 127.242 91.8159C126.992 91.5918 126.699 91.4798 126.363 91.4798C126.122 91.4798 125.872 91.5617 125.614 91.7254C125.355 91.8892 125.14 92.1736 124.967 92.5786C124.795 92.9837 124.709 93.5568 124.709 94.298C124.709 94.815 124.752 95.2546 124.838 95.6165C124.933 95.9699 125.058 96.2586 125.213 96.4827C125.377 96.6981 125.558 96.8576 125.756 96.961C125.963 97.0644 126.174 97.1161 126.389 97.1161ZM130.568 100.245C130.723 99.8481 130.831 99.4732 130.891 99.1198C130.96 98.7751 130.999 98.4175 131.008 98.0469C131.025 97.6677 131.034 97.2497 131.034 96.7929H132.934C132.934 97.4307 132.895 97.9693 132.818 98.4088C132.749 98.8484 132.654 99.2146 132.533 99.5077C132.413 99.8007 132.288 100.046 132.158 100.245H130.568ZM137.409 98.7449C136.849 98.7449 136.336 98.6501 135.871 98.4605C135.414 98.2623 135.022 97.9779 134.694 97.6073C134.367 97.2368 134.117 96.7757 133.944 96.2241C133.772 95.6726 133.686 95.0434 133.686 94.3367C133.686 93.337 133.85 92.5097 134.177 91.8547C134.505 91.1911 134.953 90.6955 135.522 90.3681C136.099 90.0319 136.75 89.8639 137.474 89.8639C138.215 89.8639 138.865 90.0319 139.426 90.3681C139.986 90.7042 140.421 91.1997 140.731 91.8547C141.042 92.5097 141.197 93.3198 141.197 94.285C141.197 95.0176 141.102 95.6639 140.912 96.2241C140.731 96.7843 140.468 97.2497 140.124 97.6203C139.788 97.9909 139.387 98.2709 138.922 98.4605C138.465 98.6501 137.961 98.7449 137.409 98.7449ZM137.461 97.1161C137.65 97.1161 137.84 97.073 138.03 96.9868C138.228 96.892 138.409 96.7412 138.572 96.5344C138.736 96.3275 138.865 96.0518 138.96 95.707C139.055 95.3537 139.102 94.9142 139.102 94.3884C139.102 93.7593 139.034 93.2293 138.896 92.7984C138.758 92.3675 138.564 92.04 138.314 91.8159C138.064 91.5918 137.771 91.4798 137.435 91.4798C137.194 91.4798 136.944 91.5617 136.685 91.7254C136.427 91.8892 136.211 92.1736 136.039 92.5786C135.866 92.9837 135.78 93.5568 135.78 94.298C135.78 94.815 135.823 95.2546 135.909 95.6165C136.004 95.9699 136.129 96.2586 136.284 96.4827C136.448 96.6981 136.629 96.8576 136.827 96.961C137.034 97.0644 137.245 97.1161 137.461 97.1161ZM146.069 98.7449C145.509 98.7449 144.996 98.6501 144.531 98.4605C144.074 98.2623 143.682 97.9779 143.355 97.6073C143.027 97.2368 142.777 96.7757 142.605 96.2241C142.432 95.6726 142.346 95.0434 142.346 94.3367C142.346 93.337 142.51 92.5097 142.837 91.8547C143.165 91.1911 143.613 90.6955 144.182 90.3681C144.759 90.0319 145.41 89.8639 146.134 89.8639C146.875 89.8639 147.526 90.0319 148.086 90.3681C148.646 90.7042 149.081 91.1997 149.392 91.8547C149.702 92.5097 149.857 93.3198 149.857 94.285C149.857 95.0176 149.762 95.6639 149.573 96.2241C149.392 96.7843 149.129 97.2497 148.784 97.6203C148.448 97.9909 148.047 98.2709 147.582 98.4605C147.125 98.6501 146.621 98.7449 146.069 98.7449ZM146.121 97.1161C146.311 97.1161 146.5 97.073 146.69 96.9868C146.888 96.892 147.069 96.7412 147.233 96.5344C147.397 96.3275 147.526 96.0518 147.621 95.707C147.715 95.3537 147.763 94.9142 147.763 94.3884C147.763 93.7593 147.694 93.2293 147.556 92.7984C147.418 92.3675 147.224 92.04 146.974 91.8159C146.724 91.5918 146.431 91.4798 146.095 91.4798C145.854 91.4798 145.604 91.5617 145.345 91.7254C145.087 91.8892 144.871 92.1736 144.699 92.5786C144.527 92.9837 144.44 93.5568 144.44 94.298C144.44 94.815 144.484 95.2546 144.57 95.6165C144.665 95.9699 144.789 96.2586 144.945 96.4827C145.108 96.6981 145.289 96.8576 145.488 96.961C145.694 97.0644 145.906 97.1161 146.121 97.1161ZM154.73 98.7449C154.169 98.7449 153.657 98.6501 153.191 98.4605C152.734 98.2623 152.342 97.9779 152.015 97.6073C151.687 97.2368 151.437 96.7757 151.265 96.2241C151.093 95.6726 151.007 95.0434 151.007 94.3367C151.007 93.337 151.17 92.5097 151.498 91.8547C151.825 91.1911 152.273 90.6955 152.842 90.3681C153.42 90.0319 154.07 89.8639 154.794 89.8639C155.535 89.8639 156.186 90.0319 156.746 90.3681C157.306 90.7042 157.742 91.1997 158.052 91.8547C158.362 92.5097 158.517 93.3198 158.517 94.285C158.517 95.0176 158.422 95.6639 158.233 96.2241C158.052 96.7843 157.789 97.2497 157.444 97.6203C157.108 97.9909 156.707 98.2709 156.242 98.4605C155.785 98.6501 155.281 98.7449 154.73 98.7449ZM154.781 97.1161C154.971 97.1161 155.16 97.073 155.35 96.9868C155.548 96.892 155.729 96.7412 155.893 96.5344C156.057 96.3275 156.186 96.0518 156.281 95.707C156.376 95.3537 156.423 94.9142 156.423 94.3884C156.423 93.7593 156.354 93.2293 156.216 92.7984C156.078 92.3675 155.884 92.04 155.634 91.8159C155.385 91.5918 155.092 91.4798 154.755 91.4798C154.514 91.4798 154.264 91.5617 154.006 91.7254C153.747 91.8892 153.532 92.1736 153.359 92.5786C153.187 92.9837 153.101 93.5568 153.101 94.298C153.101 94.815 153.144 95.2546 153.23 95.6165C153.325 95.9699 153.45 96.2586 153.605 96.4827C153.769 96.6981 153.95 96.8576 154.148 96.961C154.355 97.0644 154.566 97.1161 154.781 97.1161ZM160.625 98.732C160.177 98.732 159.841 98.6372 159.617 98.4476C159.401 98.258 159.294 97.965 159.294 97.5686C159.294 97.1635 159.401 96.8662 159.617 96.6766C159.841 96.487 160.177 96.3922 160.625 96.3922C161.082 96.3922 161.422 96.487 161.646 96.6766C161.871 96.8662 161.983 97.1635 161.983 97.5686C161.983 98.3442 161.53 98.732 160.625 98.732ZM166.183 98.7708C165.735 98.7708 165.322 98.7234 164.942 98.6286C164.563 98.5338 164.231 98.3916 163.947 98.202C163.671 98.0124 163.438 97.7754 163.249 97.491C163.068 97.198 162.947 96.8619 162.887 96.4827L164.826 95.9785C164.886 96.194 164.964 96.3706 165.059 96.5085C165.162 96.6464 165.278 96.7541 165.408 96.8317C165.537 96.9093 165.671 96.9653 165.808 96.9998C165.946 97.0256 166.084 97.0385 166.222 97.0385C166.55 97.0385 166.834 96.9696 167.075 96.8317C167.325 96.6852 167.524 96.487 167.67 96.2371C167.825 95.9871 167.937 95.6941 168.006 95.358C168.084 95.0133 168.122 94.647 168.122 94.2592C168.122 94.1471 168.118 94.0265 168.11 93.8972C168.101 93.7593 168.088 93.6171 168.071 93.4706C168.062 93.3155 168.045 93.169 168.019 93.0311H167.89C167.89 93.4792 167.812 93.8541 167.657 94.1558C167.502 94.4488 167.299 94.6858 167.05 94.8668C166.8 95.0391 166.528 95.1641 166.235 95.2416C165.951 95.3106 165.679 95.3451 165.421 95.3451C164.973 95.3451 164.55 95.246 164.154 95.0477C163.757 94.8495 163.434 94.5565 163.184 94.1687C162.943 93.7809 162.822 93.3026 162.822 92.7338C162.822 92.3976 162.878 92.0572 162.99 91.7125C163.102 91.3678 163.283 91.0532 163.533 90.7688C163.792 90.4758 164.132 90.2431 164.555 90.0707C164.985 89.8984 165.515 89.8122 166.145 89.8122C167.024 89.8122 167.761 89.9932 168.355 90.3551C168.958 90.7085 169.415 91.2256 169.725 91.9064C170.036 92.5786 170.191 93.3887 170.191 94.3367C170.191 95.3364 170.027 96.1681 169.7 96.8317C169.372 97.4867 168.907 97.9736 168.303 98.2925C167.709 98.6114 167.002 98.7708 166.183 98.7708ZM166.17 93.9231C166.42 93.9231 166.649 93.867 166.856 93.755C167.071 93.643 167.243 93.4878 167.373 93.2896C167.502 93.0914 167.567 92.8587 167.567 92.5916C167.567 92.3158 167.498 92.096 167.36 91.9323C167.222 91.7685 167.054 91.6522 166.856 91.5832C166.657 91.5057 166.455 91.4669 166.248 91.4669C166.058 91.4669 165.882 91.497 165.718 91.5574C165.554 91.6091 165.412 91.6909 165.291 91.803C165.179 91.9064 165.089 92.0357 165.02 92.1908C164.951 92.3373 164.917 92.5054 164.917 92.695C164.917 92.9363 164.973 93.1517 165.085 93.3413C165.197 93.5223 165.343 93.6645 165.524 93.7679C165.714 93.8714 165.929 93.9231 166.17 93.9231ZM175.041 98.7708C174.291 98.7708 173.636 98.6846 173.076 98.5123C172.525 98.3399 172.094 98.077 171.784 97.7237C171.482 97.3617 171.331 96.9136 171.331 96.3793C171.331 95.9742 171.413 95.6295 171.577 95.3451C171.74 95.052 171.969 94.8194 172.262 94.647C172.563 94.466 172.908 94.354 173.296 94.3109V94.1945L175.041 93.8584L176.812 94.1945V94.3109C177.2 94.354 177.54 94.4617 177.833 94.6341C178.127 94.8064 178.351 95.0391 178.506 95.3321C178.669 95.6252 178.751 95.9742 178.751 96.3793C178.751 96.9136 178.596 97.3617 178.286 97.7237C177.984 98.077 177.553 98.3399 176.993 98.5123C176.442 98.6846 175.791 98.7708 175.041 98.7708ZM175.054 97.0644C175.235 97.0644 175.416 97.0472 175.597 97.0127C175.787 96.9696 175.959 96.9093 176.114 96.8317C176.269 96.7455 176.394 96.6378 176.489 96.5085C176.592 96.3706 176.644 96.2026 176.644 96.0044C176.644 95.7717 176.575 95.5864 176.437 95.4485C176.299 95.302 176.11 95.1986 175.869 95.1382C175.627 95.0779 175.351 95.0477 175.041 95.0477C174.731 95.0477 174.455 95.0779 174.214 95.1382C173.981 95.1986 173.8 95.2977 173.671 95.4356C173.542 95.5734 173.477 95.7587 173.477 95.9914C173.477 96.181 173.52 96.3448 173.606 96.4827C173.701 96.6206 173.826 96.7326 173.981 96.8188C174.136 96.905 174.309 96.9696 174.498 97.0127C174.688 97.0472 174.873 97.0644 175.054 97.0644ZM175.041 93.5352C175.274 93.5352 175.485 93.5051 175.675 93.4448C175.864 93.3844 176.015 93.2853 176.127 93.1474C176.239 93.0009 176.295 92.807 176.295 92.5657C176.295 92.3675 176.256 92.2037 176.179 92.0745C176.101 91.9366 175.998 91.8288 175.869 91.7513C175.748 91.6651 175.614 91.6048 175.468 91.5703C175.321 91.5358 175.179 91.5186 175.041 91.5186C174.843 91.5186 174.649 91.5531 174.459 91.622C174.27 91.6823 174.11 91.7901 173.981 91.9452C173.861 92.0917 173.8 92.2942 173.8 92.5528C173.8 92.7941 173.852 92.988 173.955 93.1345C174.067 93.281 174.218 93.3844 174.408 93.4448C174.597 93.5051 174.809 93.5352 175.041 93.5352ZM175.041 94.7763L173.296 94.3367V94.1687C172.917 94.0997 172.602 93.9834 172.352 93.8196C172.111 93.6559 171.93 93.4448 171.809 93.1862C171.697 92.919 171.641 92.6174 171.641 92.2813C171.641 91.7211 171.784 91.26 172.068 90.8981C172.361 90.5275 172.762 90.256 173.27 90.0837C173.779 89.9027 174.369 89.8122 175.041 89.8122C175.731 89.8122 176.33 89.907 176.838 90.0966C177.347 90.2776 177.739 90.549 178.014 90.911C178.299 91.273 178.441 91.7297 178.441 92.2813C178.441 92.7725 178.316 93.1819 178.066 93.5094C177.816 93.8369 177.398 94.0566 176.812 94.1687V94.3238L175.041 94.7763Z" fill="#177D52"/>
<path d="M106.663 114.376V113.077L109.087 111.41C109.21 111.326 109.336 111.229 109.465 111.119C109.595 111.009 109.714 110.886 109.824 110.75C109.934 110.615 110.021 110.469 110.086 110.314C110.157 110.159 110.193 109.988 110.193 109.8C110.193 109.606 110.15 109.441 110.066 109.306C109.982 109.17 109.856 109.063 109.688 108.986C109.527 108.908 109.323 108.869 109.078 108.869C108.871 108.869 108.69 108.902 108.535 108.966C108.379 109.031 108.253 109.128 108.156 109.257C108.059 109.38 107.988 109.535 107.943 109.723C107.898 109.91 107.875 110.127 107.875 110.372L106.692 110.14C106.686 109.661 106.773 109.251 106.954 108.908C107.142 108.566 107.416 108.301 107.778 108.113C108.14 107.919 108.583 107.822 109.107 107.822C109.559 107.822 109.96 107.897 110.309 108.045C110.658 108.194 110.929 108.407 111.123 108.685C111.317 108.963 111.414 109.306 111.414 109.713C111.414 110.03 111.359 110.317 111.249 110.576C111.146 110.834 111.01 111.067 110.842 111.274C110.674 111.474 110.49 111.655 110.289 111.817C110.089 111.972 109.895 112.111 109.708 112.234L108.069 113.329V113.407L111.53 113.358V114.376H106.663ZM113.991 114.376C113.991 113.937 114.036 113.481 114.126 113.009C114.217 112.538 114.353 112.066 114.534 111.594C114.721 111.122 114.96 110.67 115.251 110.236C115.542 109.803 115.888 109.403 116.289 109.034V108.947L112.992 108.995V107.968H117.404V109.034C117.1 109.325 116.822 109.664 116.57 110.052C116.318 110.44 116.098 110.867 115.91 111.332C115.729 111.791 115.587 112.279 115.484 112.796C115.387 113.307 115.338 113.834 115.338 114.376H113.991ZM118.776 114.493C118.505 114.493 118.301 114.435 118.166 114.318C118.03 114.202 117.962 114.021 117.962 113.775C117.962 113.523 118.03 113.339 118.166 113.223C118.301 113.106 118.505 113.048 118.776 113.048C119.054 113.048 119.261 113.106 119.397 113.223C119.533 113.339 119.6 113.523 119.6 113.775C119.6 114.254 119.326 114.493 118.776 114.493ZM123.474 114.512C123.061 114.512 122.702 114.467 122.398 114.376C122.094 114.292 121.842 114.173 121.642 114.018C121.442 113.856 121.286 113.659 121.177 113.426C121.067 113.194 120.999 112.935 120.973 112.651L122.088 112.302C122.101 112.528 122.146 112.719 122.224 112.874C122.301 113.029 122.405 113.158 122.534 113.261C122.663 113.358 122.809 113.43 122.97 113.475C123.138 113.52 123.313 113.543 123.494 113.543C123.759 113.543 123.995 113.507 124.202 113.436C124.408 113.358 124.573 113.242 124.696 113.087C124.819 112.925 124.88 112.719 124.88 112.466C124.88 112.156 124.777 111.907 124.57 111.72C124.37 111.526 124.076 111.393 123.688 111.322C123.306 111.245 122.834 111.229 122.272 111.274V110.547L124.463 109.034V108.957L121.264 108.976V107.968H125.695V109.16L123.659 110.615V110.702C124.26 110.676 124.738 110.744 125.094 110.905C125.449 111.067 125.704 111.287 125.859 111.565C126.021 111.843 126.102 112.153 126.102 112.496C126.102 112.903 126.005 113.258 125.811 113.562C125.617 113.866 125.326 114.102 124.938 114.27C124.551 114.431 124.063 114.512 123.474 114.512ZM130.518 114.522C129.981 114.522 129.513 114.457 129.112 114.328C128.718 114.199 128.407 114.005 128.181 113.746C127.961 113.481 127.852 113.152 127.852 112.757C127.852 112.454 127.916 112.192 128.046 111.972C128.175 111.752 128.353 111.578 128.579 111.448C128.805 111.313 129.06 111.225 129.345 111.187V111.109L130.518 110.915L131.691 111.109V111.187C131.969 111.213 132.221 111.293 132.447 111.429C132.673 111.558 132.851 111.736 132.981 111.962C133.11 112.182 133.174 112.447 133.174 112.757C133.174 113.152 133.065 113.481 132.845 113.746C132.625 114.005 132.315 114.199 131.914 114.328C131.513 114.457 131.048 114.522 130.518 114.522ZM130.528 113.484C130.676 113.484 130.831 113.472 130.993 113.446C131.161 113.413 131.316 113.365 131.458 113.3C131.601 113.229 131.717 113.135 131.807 113.019C131.898 112.903 131.943 112.757 131.943 112.583C131.943 112.37 131.875 112.192 131.739 112.05C131.61 111.907 131.436 111.801 131.216 111.73C131.003 111.658 130.77 111.623 130.518 111.623C130.266 111.623 130.033 111.658 129.82 111.73C129.606 111.794 129.435 111.898 129.306 112.04C129.177 112.176 129.112 112.353 129.112 112.573C129.112 112.741 129.154 112.883 129.238 113C129.329 113.116 129.442 113.213 129.577 113.291C129.72 113.362 129.875 113.413 130.043 113.446C130.211 113.472 130.372 113.484 130.528 113.484ZM130.508 110.682C130.709 110.682 130.899 110.65 131.08 110.586C131.261 110.521 131.407 110.421 131.516 110.285C131.633 110.149 131.691 109.975 131.691 109.761C131.691 109.593 131.652 109.451 131.575 109.335C131.504 109.218 131.407 109.125 131.284 109.054C131.167 108.983 131.038 108.934 130.896 108.908C130.76 108.876 130.628 108.86 130.498 108.86C130.317 108.86 130.137 108.889 129.956 108.947C129.781 108.999 129.632 109.089 129.51 109.218C129.393 109.348 129.335 109.522 129.335 109.742C129.335 109.955 129.39 110.133 129.5 110.275C129.61 110.417 129.755 110.521 129.936 110.586C130.117 110.65 130.308 110.682 130.508 110.682ZM130.518 111.448L129.345 111.206V111.07C129.08 111.019 128.85 110.931 128.656 110.809C128.469 110.686 128.323 110.524 128.22 110.324C128.123 110.123 128.075 109.887 128.075 109.616C128.075 109.215 128.178 108.882 128.385 108.617C128.592 108.352 128.876 108.155 129.238 108.026C129.606 107.89 130.033 107.822 130.518 107.822C131.016 107.822 131.445 107.893 131.807 108.036C132.169 108.171 132.447 108.372 132.641 108.637C132.842 108.902 132.942 109.231 132.942 109.626C132.942 110.007 132.838 110.324 132.631 110.576C132.431 110.821 132.118 110.986 131.691 111.07V111.196L130.518 111.448ZM136.523 111.351C136.174 111.351 135.861 111.287 135.583 111.158C135.311 111.022 135.095 110.818 134.933 110.547C134.778 110.269 134.7 109.926 134.7 109.519C134.7 109.176 134.752 108.886 134.856 108.646C134.965 108.407 135.108 108.217 135.282 108.074C135.457 107.932 135.654 107.829 135.874 107.764C136.1 107.693 136.326 107.657 136.552 107.657C136.895 107.657 137.202 107.725 137.473 107.861C137.751 107.997 137.971 108.2 138.133 108.472C138.294 108.743 138.375 109.086 138.375 109.5C138.375 109.952 138.284 110.317 138.104 110.595C137.923 110.867 137.69 111.061 137.405 111.177C137.121 111.293 136.827 111.351 136.523 111.351ZM136.562 110.421C136.691 110.421 136.817 110.392 136.94 110.333C137.063 110.275 137.163 110.185 137.241 110.062C137.318 109.933 137.357 109.758 137.357 109.538C137.357 109.306 137.315 109.122 137.231 108.986C137.147 108.844 137.04 108.743 136.911 108.685C136.788 108.621 136.656 108.588 136.513 108.588C136.378 108.588 136.248 108.621 136.126 108.685C136.009 108.743 135.912 108.837 135.835 108.966C135.757 109.089 135.718 109.26 135.718 109.48C135.718 109.7 135.76 109.881 135.844 110.023C135.928 110.165 136.035 110.269 136.164 110.333C136.294 110.392 136.426 110.421 136.562 110.421ZM141.652 114.726C141.309 114.726 140.999 114.658 140.721 114.522C140.443 114.386 140.227 114.183 140.072 113.911C139.917 113.64 139.839 113.3 139.839 112.893C139.839 112.55 139.891 112.26 139.994 112.02C140.098 111.781 140.237 111.591 140.411 111.448C140.592 111.3 140.792 111.193 141.012 111.128C141.232 111.064 141.455 111.032 141.681 111.032C142.03 111.032 142.34 111.099 142.612 111.235C142.89 111.364 143.106 111.568 143.262 111.846C143.423 112.117 143.504 112.46 143.504 112.874C143.504 113.326 143.413 113.688 143.232 113.96C143.051 114.231 142.819 114.425 142.534 114.541C142.256 114.664 141.962 114.726 141.652 114.726ZM141.691 113.795C141.827 113.795 141.953 113.766 142.069 113.707C142.192 113.649 142.292 113.559 142.37 113.436C142.447 113.307 142.486 113.132 142.486 112.912C142.486 112.673 142.444 112.486 142.36 112.35C142.282 112.214 142.179 112.117 142.05 112.059C141.92 111.995 141.785 111.962 141.642 111.962C141.513 111.962 141.387 111.991 141.264 112.05C141.141 112.108 141.041 112.201 140.964 112.331C140.893 112.46 140.857 112.635 140.857 112.854C140.857 113.074 140.896 113.255 140.973 113.397C141.057 113.533 141.164 113.633 141.293 113.698C141.423 113.762 141.555 113.795 141.691 113.795ZM136.523 114.376L140.363 107.977H141.565L137.725 114.376H136.523Z" fill="#177D52"/>
<path fill-rule="evenodd" clip-rule="evenodd" d="M153.68 109.061C153.74 108.905 153.915 108.827 154.071 108.887L156.471 109.808C156.546 109.837 156.607 109.894 156.639 109.967C156.672 110.041 156.674 110.124 156.645 110.199L155.724 112.599C155.664 112.756 155.489 112.834 155.333 112.774C155.176 112.714 155.098 112.539 155.158 112.382L155.818 110.665L155.379 110.86C154.388 111.302 153.633 112.053 153.177 112.95C153.133 113.037 153.05 113.097 152.954 113.112C152.858 113.128 152.761 113.096 152.693 113.027L151.167 111.502L148.654 114.015C148.536 114.133 148.344 114.133 148.226 114.015C148.108 113.896 148.108 113.704 148.226 113.586L150.953 110.859C151.01 110.802 151.087 110.77 151.167 110.77C151.247 110.77 151.324 110.802 151.381 110.859L152.838 112.316C153.363 111.459 154.145 110.746 155.132 110.307L155.571 110.111L153.854 109.452C153.698 109.392 153.62 109.217 153.68 109.061Z" fill="#177D52"/>
<rect x="0.5" y="220.705" width="78.6344" height="29.7357" rx="3.96476" fill="#DF3B27"/>
<path d="M20.4267 240.456C19.7924 240.456 19.2195 240.345 18.708 240.123C18.2005 239.897 17.7822 239.576 17.4532 239.16C17.128 238.739 16.9219 238.24 16.8347 237.661L18.5236 237.411C18.6426 237.903 18.8884 238.281 19.2611 238.547C19.6338 238.813 20.058 238.946 20.5338 238.946C20.7994 238.946 21.0571 238.904 21.3069 238.821C21.5567 238.737 21.7609 238.614 21.9195 238.452C22.082 238.289 22.1633 238.089 22.1633 237.851C22.1633 237.764 22.1494 237.681 22.1217 237.601C22.0979 237.518 22.0562 237.441 21.9968 237.37C21.9373 237.298 21.8521 237.231 21.741 237.167C21.634 237.104 21.4972 237.046 21.3307 236.995L19.1065 236.341C18.9399 236.293 18.7457 236.226 18.5236 236.139C18.3056 236.051 18.0935 235.926 17.8873 235.764C17.6811 235.601 17.5087 235.387 17.3699 235.122C17.2351 234.852 17.1677 234.513 17.1677 234.105C17.1677 233.53 17.3124 233.052 17.6018 232.671C17.8913 232.291 18.2778 232.007 18.7615 231.821C19.2452 231.635 19.7805 231.543 20.3673 231.547C20.958 231.555 21.4853 231.656 21.9492 231.851C22.4131 232.045 22.8016 232.328 23.1148 232.701C23.428 233.07 23.654 233.522 23.7928 234.057L22.0443 234.354C21.9809 234.077 21.864 233.843 21.6935 233.653C21.523 233.462 21.3188 233.318 21.0809 233.218C20.847 233.119 20.6012 233.066 20.3435 233.058C20.0897 233.05 19.8499 233.086 19.6239 233.165C19.4018 233.24 19.2195 233.351 19.0767 233.498C18.938 233.645 18.8686 233.819 18.8686 234.021C18.8686 234.208 18.9261 234.36 19.041 234.479C19.156 234.594 19.3007 234.687 19.4752 234.759C19.6496 234.83 19.828 234.89 20.0104 234.937L21.4972 235.342C21.7192 235.401 21.9651 235.48 22.2347 235.579C22.5043 235.675 22.762 235.809 23.0078 235.984C23.2576 236.154 23.4618 236.38 23.6203 236.662C23.7829 236.943 23.8642 237.3 23.8642 237.732C23.8642 238.192 23.767 238.595 23.5728 238.94C23.3825 239.281 23.1247 239.564 22.7996 239.79C22.4745 240.012 22.1058 240.179 21.6935 240.29C21.2851 240.401 20.8629 240.456 20.4267 240.456ZM25.1713 240.278V231.714H30.7616V233.224H26.789V235.056H30.048V236.567H26.789V238.767H30.7616V240.278H25.1713ZM32.306 240.278V231.714H33.9237V238.767H37.6109V240.278H32.306ZM38.741 240.278V231.714H40.3586V238.767H44.0459V240.278H38.741Z" fill="white"/>
<path fill-rule="evenodd" clip-rule="evenodd" d="M61.7607 235.573C61.7607 238.386 59.4805 240.666 56.6671 240.666C53.8544 240.666 51.5735 238.386 51.5735 235.573C51.5735 232.76 53.8544 230.479 56.6671 230.479C59.4805 230.479 61.7607 232.76 61.7607 235.573Z" stroke="white" stroke-width="0.673297" stroke-linecap="round" stroke-linejoin="round"/>
<path d="M58.5791 234.779L56.6678 236.698L54.7564 234.779" stroke="white" stroke-width="0.673297" stroke-linecap="round" stroke-linejoin="round"/>
<rect x="241.359" y="37.9957" width="58.8106" height="58.8106" rx="5.61674" fill="white" stroke="#E6E6E6" stroke-width="0.660793"/>
<path d="M254.906 69.7615H252.074L251.425 70.5285L251.307 81.6793L251.956 82.5643H254.965L255.673 81.7973V70.5285L254.906 69.7615Z" fill="white" stroke="black" stroke-width="0.117999"/>
<path d="M284.278 71.6191C283.569 71.1055 282.352 71.3526 281.707 71.6434C280.701 72.0982 279.706 72.7483 278.654 73.4367C277.324 74.3063 275.959 75.1916 274.487 75.7412C274.714 75.3828 274.76 74.9704 274.621 74.5135C273.957 72.3302 270.548 72.5346 268.292 72.6711C267.738 72.704 267.259 72.7359 266.897 72.7251C265.713 72.7003 264.869 72.0669 263.975 71.3968C263.497 71.0386 263.002 70.668 262.444 70.3853C260.023 69.16 257.959 68.6792 255.858 70.2665C255.662 69.7944 255.197 69.4611 254.656 69.4611H252.374C251.656 69.4611 251.072 70.0449 251.072 70.7624V81.5582C251.072 82.2757 251.656 82.8595 252.374 82.8595H254.656C255.303 82.8595 255.837 82.3834 255.936 81.764C258.126 81.0104 260.515 81.8661 262.828 82.6987C264.489 83.2964 266.207 83.9147 267.833 83.9212C267.839 83.9212 267.845 83.9212 267.851 83.9212C269.22 83.9212 270.453 83.3272 271.645 82.7532L272.026 82.5703C274.301 81.4886 276.768 79.9867 279.566 77.9787C279.853 77.7726 280.204 77.546 280.586 77.2989C282.263 76.2134 284.56 74.7277 284.759 72.8826C284.835 72.1813 284.539 71.8085 284.278 71.6191ZM255.404 81.5582C255.404 81.9709 255.069 82.307 254.656 82.307H252.374C251.961 82.307 251.625 81.9709 251.625 81.5582V70.7624C251.625 70.3497 251.961 70.0136 252.374 70.0136H254.656C255.069 70.0136 255.404 70.3497 255.404 70.7624V81.5582ZM284.21 72.8233C284.039 74.4067 281.87 75.8099 280.286 76.8349C279.896 77.0874 279.537 77.3194 279.244 77.5298C276.473 79.5184 274.034 81.0041 271.789 82.0718L271.405 82.2552C270.269 82.8028 269.094 83.3687 267.851 83.3687C267.846 83.3687 267.841 83.3687 267.835 83.3687C266.305 83.3628 264.707 82.7877 263.015 82.1786C260.679 81.3383 258.267 80.4733 255.957 81.1752V70.8947C257.922 69.2547 259.806 69.6684 262.194 70.8784C262.71 71.1395 263.184 71.495 263.644 71.8392C264.568 72.5319 265.524 73.2484 266.885 73.2775C267.272 73.2856 267.759 73.2559 268.325 73.2225C270.408 73.0968 273.556 72.908 274.092 74.6743C274.185 74.9796 274.16 75.2359 274.015 75.4581C273.594 76.1045 272.31 76.3246 271.777 76.3893C271.413 76.4335 271.052 76.4799 270.695 76.5263C268.116 76.8592 265.68 77.1748 263.139 76.392C262.991 76.344 262.838 76.4282 262.794 76.5744C262.749 76.72 262.831 76.8749 262.976 76.9196C264.212 77.3005 265.411 77.4343 266.607 77.4343C267.983 77.4343 269.353 77.2568 270.766 77.0739C271.122 77.0281 271.481 76.9817 271.844 76.9374C272.103 76.906 272.434 76.8503 272.776 76.7614C272.777 76.7613 272.778 76.7617 272.779 76.7616C275.086 76.4303 277.053 75.1431 278.956 73.899C279.99 73.2225 280.967 72.5837 281.934 72.1473C282.566 71.8613 283.517 71.7497 283.954 72.0664C284.165 72.219 284.248 72.4667 284.21 72.8233Z" fill="#222222" stroke="#222222" stroke-width="0.153398"/>
<circle cx="272.933" cy="60.8183" r="9.56411" fill="#C1F900"/>
<path d="M275.109 59.5256L274.918 60.1622H270.368L270.556 59.5256H275.109ZM273.268 65.1499L270.425 61.8115L270.418 61.3449H271.662C272.039 61.3449 272.359 61.2907 272.624 61.1822C272.89 61.0713 273.092 60.9073 273.232 60.6903C273.374 60.4733 273.446 60.2044 273.446 59.8837C273.446 59.4111 273.297 59.0398 273.001 58.7697C272.706 58.4972 272.284 58.361 271.735 58.361H270.368L270.556 57.7425H271.735C272.265 57.7425 272.709 57.8341 273.066 58.0174C273.425 58.2007 273.695 58.4538 273.876 58.7769C274.059 59.0976 274.151 59.4666 274.151 59.8837C274.151 60.2743 274.063 60.6264 273.887 60.9398C273.713 61.2509 273.444 61.4981 273.08 61.6813C272.719 61.8622 272.257 61.9526 271.695 61.9526H271.435L274.111 65.0956V65.1499H273.268ZM275.135 57.7425L274.947 58.3791L271.113 58.361L271.286 57.7425H275.135Z" fill="#222222"/>
<path d="M272.96 70.769C278.443 70.769 282.904 66.3082 282.904 60.825C282.904 55.3419 278.443 50.8811 272.96 50.8811C267.476 50.8811 263.016 55.3419 263.016 60.825C263.016 66.3082 267.476 70.769 272.96 70.769ZM272.96 51.4335C278.138 51.4335 282.351 55.6464 282.351 60.825C282.351 66.0036 278.138 70.2165 272.96 70.2165C267.781 70.2165 263.568 66.0036 263.568 60.825C263.568 55.6464 267.781 51.4335 272.96 51.4335Z" fill="#222222" stroke="#222222" stroke-width="0.153398"/>
<defs>
<linearGradient id="paint0_linear_311_886" x1="145.214" y1="209.691" x2="145.214" y2="336.11" gradientUnits="userSpaceOnUse">
<stop stop-color="#177D52" stop-opacity="0.3"/>
<stop offset="1" stop-color="#177D52" stop-opacity="0"/>
</linearGradient>
</defs>
</svg>
