<svg width="13" height="20" viewBox="0 0 13 20" fill="none" xmlns="http://www.w3.org/2000/svg">
<path d="M12.7834 4.99501L12.4245 6.15894H0.591267L0.940446 4.99501H12.7834ZM8.81637 20L0.668862 10.7759L0.649463 9.91261H3.79207C4.89134 9.91261 5.82895 9.74772 6.6049 9.41794C7.38732 9.08816 7.98545 8.60643 8.39929 7.97273C8.81313 7.33904 9.02005 6.56308 9.02005 5.64487C9.02005 4.29989 8.58358 3.23619 7.71063 2.45377C6.84415 1.66488 5.66729 1.27044 4.18005 1.27044H0.591267L0.940446 0.135608H4.18005C5.44744 0.135608 6.53377 0.368394 7.43905 0.833966C8.35079 1.29307 9.04915 1.93647 9.53412 2.76415C10.0256 3.59183 10.2713 4.55207 10.2713 5.64487C10.2713 6.71181 10.0256 7.64942 9.53412 8.4577C9.04915 9.26599 8.32816 9.89968 7.37115 10.3588C6.42061 10.8114 5.24375 11.0377 3.84057 11.0377H2.50205L10.3004 19.8739V20H8.81637ZM12.9289 0.135608L12.5603 1.29954L1.89099 1.27044L2.16257 0.135608H12.9289Z" fill="#222222"/>
</svg>
