<svg width="61" height="60" viewBox="0 0 61 60" fill="none" xmlns="http://www.w3.org/2000/svg">
<path d="M28.9309 26.5686C28.9309 32.1437 28.9309 37.7187 28.9309 43.2888C28.9309 48.8589 28.9309 54.434 28.9309 59.999C26.6337 58.6755 24.3367 57.3468 22.0395 56.0183C22.0395 52.95 22.0395 49.8716 22.0395 46.8033C22.0395 43.7301 22.0395 40.6568 22.0395 37.5783C21.2584 40.2055 20.4772 42.8275 19.699 45.4496C18.9208 48.0718 18.1425 50.6988 17.3643 53.316C15.4404 52.198 13.5194 51.0899 11.5984 49.9769C10.8115 46.4323 10.0239 42.8828 9.24044 39.3381C8.45592 35.7886 7.67244 32.2339 6.88843 28.6843C6.88843 31.7827 6.88843 34.8861 6.88843 37.9794C6.88843 41.0728 6.88843 44.1713 6.88843 47.2646C4.59128 45.936 2.29423 44.6124 0 43.2888C0 37.7238 0 32.1487 0 26.5836C0 21.0135 0 15.4384 0 9.86328C1.3857 10.6654 2.77734 11.4677 4.16314 12.2698C5.54894 13.072 6.94048 13.8741 8.3292 14.6764C9.36497 18.8928 10.4036 23.1194 11.4393 27.3307C12.475 31.542 13.5136 35.7686 14.5523 39.985C15.5648 36.9518 16.5783 33.9138 17.5901 30.8853C18.6033 27.8525 19.618 24.819 20.6336 21.7807C22.0165 22.5779 23.3983 23.377 24.7823 24.1773C26.1641 24.9763 27.5481 25.7715 28.931 26.5688L28.9309 26.5686Z" fill="white"/>
<path d="M1.22656 7.61909C3.36883 6.38233 5.50526 5.14891 7.63596 3.91872C10.4903 5.55995 13.3389 7.20461 16.1875 8.84917C19.0304 10.4904 21.879 12.1351 24.7276 13.7763C26.424 12.7936 28.1204 11.8141 29.8169 10.8347C27.7209 9.62462 25.6178 8.41383 23.5175 7.20127C21.4202 5.99038 19.3199 4.77782 17.2182 3.56443C19.2563 2.38785 21.3001 1.20783 23.3382 0.03125C25.4399 1.24465 27.5358 2.4547 29.6375 3.6681C31.7335 4.87805 33.8352 6.08821 35.9311 7.3015C37.8244 6.20847 39.7119 5.11877 41.5994 4.02907C43.4869 2.93927 45.3744 1.84967 47.2619 0.759871C49.242 1.90307 51.2222 3.04628 53.1964 4.18625C55.1766 5.32945 57.151 6.46932 59.1252 7.61252C54.308 10.3969 49.4844 13.1801 44.6622 15.9658C39.8385 18.7523 35.0162 21.5414 30.1933 24.3292C25.3704 21.5448 20.5416 18.7569 15.7187 15.9759C10.89 13.1915 6.06127 10.4036 1.22677 7.61909H1.22656Z" fill="white"/>
<path d="M60.3878 43.2917C60.3878 37.7166 60.3878 32.1416 60.3878 26.5715C60.3878 21.0014 60.3878 15.4263 60.3878 9.86133C58.0906 11.1849 55.7936 12.5135 53.4964 13.842C53.4964 16.9104 53.4964 19.9887 53.4964 23.057C53.4964 26.1303 53.4964 29.2036 53.4964 32.282C52.7154 29.6549 51.9342 27.0328 51.156 24.4107C50.3777 21.7886 49.5995 19.1615 48.8212 16.5444C46.8973 17.6623 44.9763 18.7704 43.0553 19.8835C42.2684 23.428 41.4809 26.9776 40.6975 30.5222C39.9129 34.0718 39.1295 37.6264 38.3455 41.1761C38.3455 38.0776 38.3455 34.9742 38.3455 31.8809C38.3455 28.7875 38.3455 25.6891 38.3455 22.5957C36.0483 23.9244 33.7513 25.2479 31.457 26.5715C31.457 32.1365 31.457 37.7116 31.457 43.2767C31.457 48.8468 31.457 54.4219 31.457 59.9971C32.8428 59.1949 34.2344 58.3926 35.6202 57.5905C37.0059 56.7883 38.3975 55.9862 39.7862 55.184C40.8219 50.9676 41.8606 46.7411 42.8963 42.5298C43.932 38.3184 44.9705 34.0918 46.0092 29.8755C47.0218 32.9087 48.0352 35.9467 49.047 38.9752C50.0603 42.0079 51.0751 45.0415 52.0905 48.0798C53.4734 47.2827 54.8552 46.4836 56.2393 45.6833C57.621 44.8843 59.005 44.089 60.3879 43.2917H60.3878Z" fill="white"/>
</svg>
