<svg width="24" height="24" viewBox="0 0 24 24" fill="none" xmlns="http://www.w3.org/2000/svg">
<rect x="0.5" y="0.5" width="23" height="23" rx="1.5" stroke="black"/>
<path d="M13.0166 8.74513L17.3218 5.23553V6.45189C17.3218 6.61776 17.4574 6.72834 17.6609 6.72834C17.8644 6.72834 18 6.61776 18 6.45189V4.57332C18 4.54568 18 4.49039 17.9661 4.46274C17.9322 4.40745 17.8644 4.35216 17.7965 4.32452C17.7626 4.29688 17.6948 4.29688 17.6609 4.29688H15.3565C15.153 4.29688 15.0173 4.40745 15.0173 4.57332C15.0173 4.73919 15.153 4.84977 15.3565 4.84977H16.847L12.7792 8.16585L10.4069 6.23199C10.2713 6.12141 10.0678 6.12141 9.93218 6.23199L6.10173 9.32692C5.96609 9.4375 5.96609 9.60336 6.10173 9.71394C6.16956 9.76923 6.27129 9.79688 6.33911 9.79688C6.40694 9.79688 6.50867 9.76923 6.57649 9.71394L10.1356 6.81253L12.5079 8.74638C12.6775 8.85696 12.8809 8.85696 13.0166 8.74638V8.74513Z" fill="black" stroke="black" stroke-width="0.3"/>
<rect x="5" y="13.5" width="14" height="1" fill="black"/>
<rect x="5" y="17.5" width="14" height="1" fill="black"/>
</svg>
